<svg width="350" height="170" viewBox="0 0 350 170" fill="none" xmlns="http://www.w3.org/2000/svg">
<path d="M156.429 87.1986C156.429 99.2491 146.881 108.129 135.163 108.129C123.445 108.129 113.896 99.2491 113.896 87.1986C113.896 75.0632 123.445 66.2684 135.163 66.2684C146.881 66.2684 156.429 75.0632 156.429 87.1986ZM147.12 87.1986C147.12 79.6683 141.586 74.5159 135.163 74.5159C128.74 74.5159 123.206 79.6683 123.206 87.1986C123.206 94.6535 128.74 99.8813 135.163 99.8813C141.586 99.8813 147.12 94.644 147.12 87.1986Z" fill="white"/>
<path d="M202.307 87.1986C202.307 99.2491 192.759 108.129 181.041 108.129C169.323 108.129 159.774 99.2491 159.774 87.1986C159.774 75.0727 169.323 66.2684 181.041 66.2684C192.759 66.2684 202.307 75.0632 202.307 87.1986ZM192.997 87.1986C192.997 79.6683 187.463 74.5159 181.041 74.5159C174.618 74.5159 169.084 79.6683 169.084 87.1986C169.084 94.6535 174.618 99.8813 181.041 99.8813C187.463 99.8813 192.997 94.644 192.997 87.1986Z" fill="white"/>
<path d="M246.273 67.5329V105.109C246.273 120.566 237.04 126.879 226.125 126.879C215.85 126.879 209.666 120.094 207.334 114.546L215.439 111.215C216.883 114.621 220.419 118.641 226.116 118.641C233.102 118.641 237.432 114.385 237.432 106.374V103.363H237.107C235.023 105.902 231.009 108.119 225.943 108.119C215.344 108.119 205.633 99.0037 205.633 87.2741C205.633 75.4596 215.344 66.2684 225.943 66.2684C231 66.2684 235.014 68.486 237.107 70.9489H237.432V67.5423H246.273V67.5329ZM238.092 87.2741C238.092 79.9042 233.112 74.5159 226.775 74.5159C220.352 74.5159 214.971 79.9042 214.971 87.2741C214.971 94.5686 220.352 99.8813 226.775 99.8813C233.112 99.8813 238.092 94.5686 238.092 87.2741Z" fill="white"/>
<path d="M260.849 45.508V106.845H251.769V45.508H260.849Z" fill="white"/>
<path d="M296.232 94.0873L303.458 98.8433C301.126 102.25 295.506 108.119 285.795 108.119C273.752 108.119 264.758 98.9282 264.758 87.1892C264.758 74.7424 273.829 66.259 284.753 66.259C295.754 66.259 301.135 74.9028 302.894 79.5739L303.859 81.9519L275.52 93.54C277.69 97.7392 281.064 99.8813 285.795 99.8813C290.536 99.8813 293.824 97.5788 296.232 94.0873ZM273.991 86.5569L292.935 78.7907C291.893 76.1768 288.758 74.3555 285.069 74.3555C280.337 74.3555 273.752 78.4793 273.991 86.5569Z" fill="white"/>
<path d="M79.5263 81.7537V72.874H109.834C110.131 74.4216 110.284 76.2523 110.284 78.2339C110.284 84.8961 108.439 93.1342 102.494 99.0037C96.7113 104.949 89.3231 108.119 79.5358 108.119C61.3949 108.119 46.1406 93.5305 46.1406 75.62C46.1406 57.7095 61.3949 43.1206 79.5358 43.1206C89.5716 43.1206 96.7209 47.0085 102.092 52.0759L95.746 58.3417C91.8942 54.7747 86.6756 52.0004 79.5263 52.0004C66.279 52.0004 55.9183 62.541 55.9183 75.62C55.9183 88.699 66.279 99.2396 79.5263 99.2396C88.1188 99.2396 93.0124 95.833 96.1474 92.7379C98.6898 90.2277 100.362 86.6419 101.022 81.7443L79.5263 81.7537Z" fill="white"/>
</svg>
