<svg width="350" height="170" viewBox="0 0 350 170" fill="none" xmlns="http://www.w3.org/2000/svg">
<g clip-path="url(#clip0_177_3277)">
<path d="M104.079 63.2471C90.5842 63.2471 79.3393 69.0115 79.3393 86.4027C79.3393 100.18 86.9007 108.857 104.427 108.857C125.056 108.857 126.379 95.1738 126.379 95.1738H116.383C116.383 95.1738 114.24 102.541 103.817 102.541C95.3285 102.541 89.223 96.7675 89.223 88.6744H127.424V83.5959C127.424 75.5894 122.376 63.2471 104.079 63.2471ZM103.73 69.7377C111.811 69.7377 117.319 74.722 117.319 82.1926H89.4441C89.4441 74.2617 96.6344 69.7377 103.73 69.7377Z" fill="white"/>
<path d="M127.418 46.4062V100.122C127.418 103.172 127.202 107.453 127.202 107.453H136.736C136.736 107.453 137.078 104.378 137.078 101.568C137.078 101.568 141.788 108.988 154.596 108.988C168.083 108.988 177.245 99.5595 177.245 86.0515C177.245 73.4852 168.83 63.3783 154.618 63.3783C141.31 63.3783 137.174 70.6144 137.174 70.6144V46.4062H127.418ZM152.157 70.0224C161.316 70.0224 167.14 76.8667 167.14 86.0515C167.14 95.9005 160.413 102.344 152.222 102.344C142.447 102.344 137.174 94.6586 137.174 86.1392C137.174 78.2007 141.906 70.0224 152.157 70.0224Z" fill="white"/>
<path d="M200.938 63.2471C180.637 63.2471 179.335 74.4397 179.335 76.2282H189.44C189.44 76.2282 189.969 69.6938 200.241 69.6938C206.916 69.6938 212.088 72.77 212.088 78.6841V80.7892H200.241C184.514 80.7892 176.199 85.4219 176.199 94.8229C176.199 104.075 183.881 109.109 194.263 109.109C208.412 109.109 212.97 101.237 212.97 101.237C212.97 104.368 213.21 107.453 213.21 107.453H222.193C222.193 107.453 221.845 103.629 221.845 101.182V80.0327C221.845 66.1654 210.736 63.2471 200.938 63.2471ZM212.088 87.1044V89.9111C212.088 93.5719 209.845 102.673 196.637 102.673C189.405 102.673 186.304 99.0386 186.304 94.8229C186.304 87.1538 196.746 87.1044 212.088 87.1044Z" fill="white"/>
<path d="M216.403 65.0029H227.771L244.085 97.9132L260.362 65.0029H270.66L241.011 123.594H230.21L238.765 107.261L216.403 65.0029Z" fill="white"/>
</g>
<defs>
<clipPath id="clip0_177_3277">
<rect width="191.448" height="77.3157" fill="white" transform="translate(79.2759 46.3423)"/>
</clipPath>
</defs>
</svg>
