<svg width="350" height="170" viewBox="0 0 350 170" fill="none" xmlns="http://www.w3.org/2000/svg">
<path d="M208.92 105.019H208.82C208.87 105.019 208.87 105.068 208.92 105.068H208.969L208.92 105.019ZM208.92 105.068C208.52 105.068 207.47 105.268 206.37 105.268C202.921 105.268 201.721 103.674 201.721 101.583V87.7388H208.77C209.169 87.7388 209.469 87.3902 209.469 86.8922V79.3727C209.469 78.9743 209.119 78.6258 208.77 78.6258H201.721V69.2637C201.721 68.9152 201.471 68.716 201.071 68.716H191.472C191.073 68.716 190.873 68.965 190.873 69.2637V78.8748C190.873 78.8748 186.023 80.0699 185.723 80.1197C185.373 80.2193 185.173 80.5181 185.173 80.8667V86.8922C185.173 87.3902 185.523 87.7388 185.923 87.7388H190.823V102.28C190.823 113.086 198.371 114.181 203.52 114.181C205.87 114.181 208.72 113.435 209.169 113.186C209.419 113.086 209.569 112.787 209.569 112.488V105.865C209.569 105.467 209.319 105.168 208.92 105.068ZM314.202 95.3579C314.202 87.3404 310.952 86.2946 307.553 86.6432C304.903 86.7926 302.754 88.1372 302.754 88.1372V103.724C302.754 103.724 304.903 105.218 308.153 105.317C312.702 105.417 314.202 103.774 314.202 95.3579ZM325 94.6607C325 109.849 320.051 114.181 311.452 114.181C304.154 114.181 300.254 110.496 300.254 110.496C300.254 110.496 300.104 112.538 299.854 112.787C299.704 113.036 299.504 113.136 299.204 113.136H292.655C292.206 113.136 291.806 112.787 291.806 112.389L291.906 63.2382C291.906 62.8398 292.256 62.4912 292.655 62.4912H302.104C302.504 62.4912 302.854 62.8398 302.854 63.2382V79.9205C302.854 79.9205 306.503 77.58 311.852 77.58L311.802 77.4804C317.101 77.4804 325 79.4723 325 94.6607ZM286.257 78.6756H276.908C276.408 78.6756 276.158 79.0241 276.158 79.5221V103.575C276.158 103.575 273.709 105.268 270.359 105.268C267.01 105.268 266.06 103.774 266.06 100.437V79.4225C266.06 79.0241 265.71 78.6756 265.31 78.6756H255.812C255.412 78.6756 255.062 79.0241 255.062 79.4225V102.081C255.062 111.791 260.511 114.231 268.01 114.231C274.209 114.231 279.208 110.845 279.208 110.845C279.208 110.845 279.458 112.588 279.558 112.837C279.658 113.036 279.958 113.235 280.258 113.235H286.207C286.706 113.235 286.956 112.887 286.956 112.488L287.056 79.4225C287.106 79.0241 286.706 78.6756 286.257 78.6756ZM180.974 78.6258H171.526C171.126 78.6258 170.776 79.0241 170.776 79.5221V111.99C170.776 112.887 171.376 113.186 172.126 113.186H180.674C181.574 113.186 181.774 112.787 181.774 111.99V79.3727C181.724 78.9743 181.374 78.6258 180.974 78.6258ZM176.275 63.6366C172.876 63.6366 170.126 66.3257 170.126 69.7617C170.126 73.1978 172.826 75.8869 176.275 75.8869C179.724 75.8869 182.324 73.1978 182.324 69.7617C182.324 66.3257 179.624 63.6366 176.275 63.6366ZM249.563 62.541H240.164C239.764 62.541 239.414 62.8896 239.414 63.288V81.3646H224.717V63.288C224.717 62.8896 224.367 62.541 223.967 62.541H214.519C214.119 62.541 213.769 62.8896 213.769 63.288V112.439C213.769 112.837 214.169 113.186 214.519 113.186H223.967C224.367 113.186 224.717 112.837 224.717 112.439V91.4238H239.414L239.314 112.439C239.314 112.837 239.664 113.186 240.064 113.186H249.513C249.913 113.186 250.263 112.837 250.263 112.439V63.288C250.313 62.8896 249.963 62.541 249.563 62.541ZM165.727 84.3027V109.7C165.727 109.849 165.677 110.198 165.477 110.247C165.477 110.247 159.928 114.181 150.779 114.181C139.731 114.181 126.583 110.745 126.583 87.9878C126.583 65.2301 138.031 60.5491 149.23 60.5989C158.928 60.5989 162.827 62.79 163.427 63.1884C163.577 63.4374 163.677 63.5868 163.677 63.786L161.877 71.7038C161.877 72.1022 161.477 72.6002 160.978 72.4508C159.378 71.9528 156.978 71.0067 151.329 71.0067C144.78 71.0067 137.781 72.8492 137.781 87.5396C137.781 102.23 144.43 103.923 149.23 103.923C153.329 103.923 154.779 103.425 154.779 103.425V93.2664H148.23C147.73 93.2664 147.38 92.9178 147.38 92.5194V84.3525C147.38 83.9541 147.73 83.6056 148.23 83.6056H164.877C165.377 83.5558 165.727 83.9043 165.727 84.3027Z" fill="white"/>
<path fill-rule="evenodd" clip-rule="evenodd" d="M63.0936 48C42.0471 48 25 64.9811 25 85.946C25 102.728 35.8982 116.92 51.0456 121.95C52.9453 122.249 53.6952 121.153 53.6952 120.157C53.6952 119.261 53.6452 116.273 53.6452 113.086C44.0968 114.829 41.5972 110.745 40.8473 108.654C40.3974 107.558 38.5477 104.172 36.948 103.276C35.5982 102.579 33.6985 100.786 36.898 100.736C39.8975 100.686 42.0471 103.475 42.747 104.62C46.1964 110.347 51.6455 108.754 53.8452 107.758C54.1951 105.317 55.1949 103.624 56.2947 102.678C47.8462 101.732 38.9477 98.4453 38.9477 83.9541C38.9477 79.8209 40.4474 76.3848 42.847 73.7455C42.4471 72.7994 41.1473 68.9151 43.2469 63.6864C43.2469 63.6864 46.4464 62.6904 53.7452 67.5706C56.7947 66.724 60.0441 66.2759 63.2436 66.2759C66.443 66.2759 69.6925 66.724 72.742 67.5706C80.0408 62.6406 83.1902 63.6864 83.1902 63.6864C85.2899 68.9151 83.9401 72.7994 83.5902 73.7455C86.0397 76.3848 87.4895 79.7711 87.4895 83.9541C87.4895 98.4951 78.591 101.732 70.0924 102.678C71.4922 103.873 72.692 106.114 72.692 109.7C72.692 114.779 72.642 118.862 72.642 120.107C72.642 121.103 73.3419 122.299 75.2416 121.9C90.739 116.671 101.187 102.18 101.187 85.8962C101.187 64.9811 84.1401 48 63.0936 48Z" fill="white"/>
</svg>
