<svg width="350" height="170" viewBox="0 0 350 170" fill="none" xmlns="http://www.w3.org/2000/svg">
<path d="M132.062 91.6731V87.4392L131.97 80.8121V75.8418C131.97 74.9214 132.246 74.4612 132.89 74.4612C133.166 74.4612 133.442 74.5532 133.626 74.7373C133.81 75.1055 133.902 75.4737 133.81 75.9339V76.302C133.81 76.6702 133.81 77.2225 133.81 78.0509L133.718 86.5188L133.626 94.2503L133.81 110.542C130.405 108.425 125.342 105.387 118.715 101.614C112.088 97.84 106.658 94.8026 102.516 92.6856V93.8821L102.792 106.86V108.609C102.792 109.345 102.424 109.713 101.78 109.713C101.135 109.713 100.767 109.253 100.767 108.425V103.823L100.859 90.9368L100.767 73.6328C107.486 77.8668 117.979 83.8495 132.062 91.6731Z" fill="white"/>
<path d="M155.809 94.7106V87.4392C155.809 85.8745 155.717 84.9541 155.717 84.5859C155.717 84.3098 155.533 83.9416 155.349 83.7575C154.889 83.1132 153.969 82.7451 152.496 82.7451C151.023 82.7451 150.103 83.1132 149.735 83.8496C149.458 84.9541 149.274 86.1506 149.366 87.3472V94.6185L152.404 94.7106H155.809ZM149.366 96.3673V104.099C149.274 105.019 149.366 106.032 149.643 106.952C150.011 107.689 150.839 108.057 152.128 108.057C154.153 108.057 156.178 107.504 157.834 106.492C159.767 105.387 161.424 103.915 162.805 102.074C163.081 101.614 163.449 101.246 163.817 100.877C164.001 100.693 164.185 100.601 164.461 100.601C164.738 100.601 165.014 100.693 165.198 100.877C165.382 101.062 165.474 101.338 165.474 101.706C165.474 102.442 164.922 103.363 163.817 104.559C162.252 106.124 160.32 107.412 158.295 108.241C156.27 109.161 154.153 109.621 151.944 109.713C144.12 109.621 137.769 103.363 137.769 95.539C137.769 93.7901 138.137 91.9493 138.782 90.2925C139.426 88.6358 140.346 87.071 141.543 85.7825C142.923 84.3098 144.488 83.1132 146.329 82.2848C150.931 80.2599 156.362 80.8122 160.412 83.8496C164.369 86.7029 166.302 90.8448 166.21 96.1833H152.864L149.366 96.3673Z" fill="white"/>
<path d="M183.329 73.0806L183.053 81.1803V81.9166C184.526 81.9166 185.814 81.8246 187.011 81.7326H187.563C188.299 81.7326 188.668 82.1007 188.668 82.745C188.668 83.3893 188.299 83.7575 187.563 83.6654C187.287 83.6654 187.011 83.6654 186.643 83.6654C185.354 83.5734 184.342 83.4814 183.789 83.4814H183.053V88.3596L183.145 98.1161L183.237 103.363C183.237 104.191 183.329 105.111 183.513 105.94C183.605 106.4 183.973 106.676 184.434 106.676C185.17 106.584 185.906 106.216 186.367 105.664C187.103 104.927 187.563 104.007 187.931 103.086C188.299 102.074 188.668 101.614 189.22 101.614C189.68 101.614 189.956 101.89 190.048 102.534C189.956 103.363 189.68 104.191 189.22 104.927C188.668 105.848 187.931 106.676 187.195 107.412C185.078 109.161 182.317 110.174 179.555 109.99C176.978 110.082 174.493 109.069 172.652 107.228C171.824 106.4 171.272 105.295 170.903 104.191C170.535 102.718 170.351 101.154 170.443 99.5888V83.4814H168.879C168.418 83.4814 168.142 83.5734 167.866 83.4814C167.038 83.4814 166.669 83.2052 166.669 82.5609C166.669 81.9166 167.038 81.6405 167.866 81.6405C168.234 81.6405 168.51 81.6405 168.602 81.6405L170.443 81.7326V78.8792C174.861 77.4066 179.187 75.3816 183.329 73.0806Z" fill="white"/>
<path d="M206.433 75.7499L206.249 93.5141L206.433 108.609C207.169 108.701 207.905 108.793 208.55 108.793C210.298 108.793 211.955 108.425 213.612 107.873C215.269 107.32 216.833 106.492 218.214 105.48C219.227 104.743 220.055 103.823 220.883 102.902C221.712 101.89 222.448 100.877 223.092 99.6809C223.368 99.0366 223.737 98.7605 224.105 98.7605C224.657 98.7605 224.933 99.0366 224.933 99.4969C224.749 100.417 224.289 101.338 223.645 102.074C222.816 103.271 221.896 104.283 220.883 105.296C218.766 107.32 216.189 108.793 213.336 109.622C211.679 110.082 210.022 110.358 208.366 110.358C205.972 110.358 203.579 109.806 201.278 108.885C197.597 107.413 194.559 104.743 192.626 101.338C187.564 92.6857 190.601 81.5486 199.253 76.4862C199.622 76.3022 199.99 76.026 200.45 75.842C207.261 72.6205 215.269 73.9091 220.791 78.9714C222.448 80.5361 223.276 81.6406 223.276 82.377C223.276 82.5611 223.184 82.7451 223 82.8372C222.816 83.0213 222.632 83.0213 222.448 83.0213C222.08 83.0213 221.712 82.6531 221.251 82.0088C219.779 79.9839 217.846 78.3271 215.545 77.3146C213.244 76.1181 210.667 75.5658 208.089 75.5658C207.537 75.4738 206.985 75.5658 206.433 75.7499Z" fill="white"/>
<path d="M239.752 82.837L239.66 108.149C240.212 108.149 240.58 108.241 240.764 108.241C243.157 108.241 245.458 107.596 247.483 106.308C249.508 105.111 251.073 103.363 252.085 101.246C252.914 99.4967 253.282 97.6559 253.282 95.723C253.374 91.9492 251.717 88.3596 248.772 85.8745C246.655 83.9416 243.802 82.837 240.948 82.837C240.672 82.745 240.304 82.745 239.752 82.837ZM240.488 81.1803C243.157 81.1803 245.826 81.9166 248.128 83.3893C250.337 84.7699 252.085 86.7028 253.19 89.0039C254.202 91.0288 254.755 93.3299 254.755 95.6309C254.755 97.2877 254.386 98.9445 253.834 100.509C253.19 102.074 252.361 103.547 251.257 104.835C249.784 106.584 247.943 107.873 245.826 108.701C244.078 109.437 242.237 109.805 240.396 109.805C237.359 109.805 234.321 108.885 231.928 106.952C229.995 105.572 228.43 103.639 227.418 101.43C226.59 99.4967 226.129 97.4718 226.129 95.3548C226.037 91.397 227.694 87.6233 230.639 84.954C233.401 82.5609 236.898 81.1803 240.488 81.1803Z" fill="white"/>
<path d="M258.252 104.651C258.712 104.743 259.173 105.019 259.541 105.387C260.553 106.308 261.75 106.952 263.13 107.412C264.511 107.965 265.984 108.241 267.456 108.241C267.917 108.241 268.469 108.149 268.837 107.965C269.113 107.781 269.297 107.412 269.297 107.044C269.205 106.492 269.021 106.032 268.653 105.572C268.193 105.019 267.272 103.915 265.8 102.35C263.315 99.7729 261.013 97.1036 258.804 94.2503C257.792 92.9617 257.24 91.397 257.24 89.7402C257.24 88.4516 257.608 87.2551 258.344 86.1506C259.081 84.954 260.185 83.9416 261.382 83.2052C263.591 81.8246 266.168 81.1803 268.837 81.1803C271.046 81.1803 273.255 81.6405 275.372 82.4689C277.121 83.1132 278.041 83.9416 278.041 84.6779C278.041 84.954 277.949 85.2302 277.765 85.3222C277.581 85.5063 277.305 85.5983 277.029 85.5983C276.385 85.4142 275.74 85.1381 275.28 84.6779C273.623 83.4813 271.598 82.745 269.481 82.745C268.929 82.745 268.285 82.837 267.825 83.1132C267.456 83.2973 267.272 83.7575 267.272 84.2177C267.364 85.0461 267.733 85.7824 268.285 86.3347C269.573 87.8994 271.046 89.3721 272.519 90.7527C274.636 92.7776 275.924 94.0662 276.477 94.7105C277.121 95.3548 277.673 96.0912 278.133 96.8275C279.054 98.2081 279.514 99.7729 279.422 101.43C279.422 104.007 278.133 106.124 275.648 107.689C273.347 109.069 270.77 109.713 268.101 109.713C265.063 109.805 262.026 108.977 259.265 107.504C258.712 107.228 258.16 106.86 257.7 106.4C257.424 106.124 257.332 105.848 257.332 105.479C257.332 105.019 257.608 104.651 258.252 104.651Z" fill="white"/>
<path d="M296.634 73.0806L296.357 81.1803V81.9166C297.83 81.9166 299.119 81.8246 300.315 81.7326H300.868C301.604 81.7326 301.972 82.1007 301.972 82.745C301.972 83.3893 301.604 83.7575 300.868 83.6654C300.591 83.6654 300.315 83.6654 299.947 83.6654C298.659 83.5734 297.646 83.4814 297.094 83.4814H296.357V88.3596L296.45 98.1161L296.542 103.363C296.542 104.191 296.634 105.111 296.818 105.94C296.91 106.4 297.278 106.676 297.738 106.676C298.474 106.584 299.211 106.216 299.671 105.664C300.407 104.927 300.868 104.007 301.236 103.086C301.604 102.074 301.972 101.614 302.524 101.614C302.985 101.614 303.261 101.89 303.353 102.534C303.261 103.363 302.985 104.191 302.524 104.927C301.972 105.848 301.236 106.676 300.499 107.412C298.382 109.161 295.621 110.174 292.86 109.99C290.283 110.174 287.706 109.161 285.957 107.228C285.128 106.4 284.576 105.295 284.208 104.191C283.84 102.718 283.656 101.154 283.748 99.5888V83.3893H282.275C281.815 83.3893 281.539 83.4814 281.263 83.3893C280.434 83.3893 280.066 83.1132 280.066 82.4689C280.066 81.8246 280.434 81.5485 281.263 81.5485C281.631 81.5485 281.907 81.5485 281.999 81.5485L283.84 81.6405V78.7872C288.166 77.4066 292.492 75.3816 296.634 73.0806Z" fill="white"/>
<path d="M258.436 125.545H257.792C257.516 125.545 257.516 125.453 257.516 125.269V119.746C257.608 118.55 257.24 117.445 256.319 116.617L256.227 116.525C255.583 115.972 254.663 115.604 253.834 115.696C252.361 115.788 251.073 116.433 250.152 117.537C249.6 116.433 248.496 115.696 247.207 115.696C245.826 115.788 244.63 116.34 243.71 117.261L243.617 116.34C243.617 115.972 243.433 115.788 243.157 115.788C242.973 115.788 242.789 115.88 242.605 115.972L240.396 117.077C240.212 117.169 240.12 117.353 240.12 117.445V117.629C240.12 117.813 240.212 117.997 240.396 117.997L240.948 118.273C241.316 118.457 241.593 118.918 241.5 119.378V123.796C241.5 124.256 241.5 124.624 241.5 125.085C241.5 125.545 241.408 125.453 241.408 125.453H240.58C240.396 125.453 240.028 125.453 240.028 125.913V126.465C240.028 126.833 240.304 126.925 240.488 126.925H240.856C241.224 126.925 241.869 126.833 242.881 126.833C243.894 126.833 244.446 126.833 244.814 126.925H245.182C245.458 126.925 245.642 126.741 245.642 126.373V126.005C245.642 125.729 245.458 125.545 245.182 125.545H244.262C244.17 125.545 243.986 125.545 243.986 125.177V120.298C243.894 119.746 244.078 119.194 244.262 118.734C244.722 117.905 245.55 117.445 246.471 117.445C246.931 117.445 247.483 117.537 247.943 117.813C248.312 118.181 248.588 118.55 248.588 120.298V125.453C248.588 125.637 248.588 125.637 248.312 125.637H247.575C247.115 125.637 247.115 125.913 247.115 126.097V126.465C247.115 126.925 247.391 126.925 247.483 126.925H247.759C248.128 126.925 248.864 126.833 249.876 126.833C250.889 126.833 251.533 126.833 251.809 126.925H252.085C252.269 126.925 252.454 126.833 252.454 126.373V126.005C252.454 125.637 252.177 125.545 251.901 125.545H251.073C250.981 125.545 250.797 125.545 250.797 125.177V120.666C250.705 119.93 250.797 119.194 251.165 118.457C251.625 117.813 252.361 117.353 253.098 117.261C253.742 117.261 254.294 117.353 254.755 117.721C255.215 118.181 255.491 118.918 255.399 119.562V123.244C255.399 123.796 255.399 124.716 255.307 125.269C255.307 125.453 255.215 125.545 255.031 125.545H254.386C254.202 125.545 253.834 125.545 253.834 126.005V126.465C253.834 126.925 254.11 126.925 254.294 126.925H254.571C254.939 126.925 255.675 126.833 256.595 126.833C257.516 126.833 258.068 126.833 258.344 126.925H258.62C258.712 126.925 258.989 126.925 258.989 126.465V126.005C258.897 125.637 258.62 125.545 258.436 125.545Z" fill="white"/>
<path d="M265.616 121.587V124.164C265.616 124.624 264.511 125.452 263.775 125.452C263.223 125.452 262.763 125.084 262.763 124.532C262.763 124.44 262.763 124.348 262.763 124.348C262.763 122.967 264.051 122.323 265.064 121.863L265.616 121.587ZM269.85 125.084L269.574 124.9C269.298 124.716 269.113 124.9 269.021 125.084C268.837 125.268 268.561 125.36 268.377 125.36C268.009 125.36 267.825 124.808 267.825 123.704V118.457C267.917 117.721 267.641 117.077 267.181 116.524C266.628 115.972 265.8 115.696 265.064 115.788C263.959 115.788 262.855 116.064 261.934 116.708C260.922 117.169 260.277 118.181 260.093 119.286C260.093 119.93 260.369 120.298 260.922 120.298C261.934 120.298 262.486 119.746 262.486 118.641C262.486 118.549 262.486 118.365 262.486 118.273C262.486 117.997 262.394 117.905 262.578 117.721C263.039 117.445 263.499 117.261 264.051 117.261C264.511 117.261 264.972 117.353 265.34 117.721C265.524 118.089 265.616 118.365 265.616 118.825V120.482C264.787 121.034 263.867 121.403 262.947 121.771C261.106 122.599 260.277 123.612 260.277 124.992C260.277 126.833 261.382 127.293 262.026 127.293C262.578 127.293 263.039 127.293 263.591 127.109C264.419 126.833 265.248 126.373 265.892 125.821C266.076 126.649 266.904 127.293 267.825 127.293C268.745 127.293 269.574 126.833 269.942 126.005C270.126 125.636 270.126 125.268 269.85 125.084Z" fill="white"/>
<path d="M277.121 115.604C275.924 115.788 274.912 116.433 274.267 117.445L274.175 116.249C274.175 115.788 273.899 115.696 273.807 115.696C273.623 115.696 273.531 115.788 273.347 115.788L270.862 117.077C270.678 117.169 270.493 117.353 270.493 117.537V117.721C270.493 117.905 270.586 118.089 270.862 118.089L271.322 118.366C271.874 118.642 272.058 118.826 272.058 120.022V122.323C272.058 123.612 272.058 124.44 272.058 125.269C272.058 125.361 272.058 125.453 271.782 125.453H270.77C270.586 125.453 270.217 125.545 270.217 125.913V126.465C270.217 126.925 270.493 126.925 270.586 126.925H270.862C271.322 126.925 272.15 126.833 273.347 126.833C274.359 126.833 275.28 126.833 275.648 126.925H275.924C276.016 126.925 276.292 126.833 276.292 126.465V126.005C276.292 125.637 276.108 125.545 275.924 125.545H274.727C274.451 125.545 274.267 125.545 274.267 124.808V119.562C274.267 119.286 274.359 119.102 274.451 118.826C274.635 118.273 275.188 117.997 275.74 117.905C276.016 117.905 276.2 117.997 276.476 118.089C276.752 118.181 277.029 118.273 277.305 118.273C278.041 118.181 278.593 117.537 278.593 116.801C278.593 116.064 277.949 115.42 277.213 115.512C277.213 115.604 277.121 115.604 277.121 115.604Z" fill="white"/>
<path d="M291.019 125.544C290.651 125.544 290.191 125.36 289.822 125.268C289.546 125.084 287.613 123.243 284.944 120.574C285.957 119.654 287.706 117.997 287.982 117.813C288.442 117.537 288.994 117.353 289.546 117.261H289.73C289.915 117.261 290.099 117.169 290.191 116.985V116.524C290.191 116.064 289.915 116.064 289.822 116.064H289.546C289.27 116.064 288.626 116.156 287.798 116.156C286.969 116.156 286.141 116.156 285.773 116.064H285.497C285.312 116.064 285.128 116.248 285.036 116.432C285.036 116.432 285.036 116.432 285.036 116.524V116.985C285.036 117.353 285.312 117.445 285.497 117.445C285.681 117.445 285.865 117.445 286.049 117.537C286.049 117.537 286.049 117.629 285.957 117.813C285.128 118.733 284.3 119.654 283.38 120.482C283.103 120.574 282.827 120.666 282.551 120.666V116.985C282.551 114.039 282.551 110.357 282.643 109.161C282.643 108.977 282.643 108.793 282.551 108.609C282.459 108.517 282.367 108.517 282.275 108.517C282.091 108.517 281.907 108.609 281.723 108.701L279.054 109.805C278.869 109.897 278.593 109.989 278.593 110.265V110.449C278.593 110.726 278.777 110.726 279.146 110.818C280.25 111.094 280.25 111.37 280.25 112.382V120.574C280.25 122.783 280.25 124.072 280.25 125.176C280.25 125.544 280.066 125.544 280.066 125.544H279.146C278.869 125.544 278.685 125.636 278.685 125.913V126.465C278.685 126.833 278.869 126.925 279.054 126.925H279.33C279.698 126.925 280.434 126.833 281.447 126.833C282.459 126.833 283.011 126.833 283.38 126.925H283.656C283.84 126.925 284.116 126.833 284.116 126.373V125.913C284.116 125.729 284.024 125.452 283.656 125.452H282.919C282.735 125.452 282.643 125.452 282.643 125.176C282.643 124.348 282.643 123.52 282.643 122.599V121.863C282.919 121.863 283.103 121.955 283.287 122.047C283.748 122.415 286.417 125.268 286.509 125.544C286.509 125.544 286.509 125.544 286.509 125.636H286.325C285.865 125.636 285.865 125.913 285.865 126.097V126.465C285.865 126.925 286.141 126.925 286.325 126.925H286.693C287.153 126.925 287.982 126.833 289.086 126.833C289.915 126.833 290.467 126.833 290.835 126.925H291.111C291.387 126.925 291.571 126.741 291.571 126.557V126.005C291.479 125.636 291.203 125.544 291.019 125.544Z" fill="white"/>
<path d="M296.081 116.985C297.738 116.985 297.738 118.918 297.738 118.918C297.738 118.918 297.554 119.01 297.278 119.01H293.78C294.24 117.721 295.069 116.985 296.081 116.985ZM300.683 123.796C300.683 123.704 300.591 123.704 300.499 123.612L300.131 123.428C299.947 123.336 299.671 123.428 299.579 123.704C299.027 124.716 297.922 125.269 296.818 125.269C294.977 125.269 293.504 123.52 293.504 121.219C293.504 120.943 293.504 120.574 293.504 120.298H299.395C299.671 120.298 300.315 120.298 300.315 119.654C300.315 117.537 298.566 115.788 296.449 115.788C295.069 115.696 293.78 116.248 292.768 117.169C291.663 118.273 291.111 119.746 291.111 121.311C291.019 122.784 291.387 124.164 292.216 125.361C293.228 126.649 294.701 127.294 296.357 127.202C298.198 127.11 299.855 126.005 300.499 124.348C300.775 124.164 300.775 123.98 300.683 123.796Z" fill="white"/>
<path d="M309.244 116.248C309.152 116.156 309.06 116.064 308.876 116.064H305.654L305.746 113.855C305.746 113.303 305.378 113.211 305.286 113.211C305.01 113.211 304.734 113.303 304.734 113.579C303.998 114.776 303.077 115.788 301.973 116.617C301.697 116.801 301.42 116.893 301.42 117.261C301.42 117.537 301.697 117.813 301.973 117.813C301.973 117.813 301.973 117.813 302.065 117.813H303.353C303.353 118.826 303.353 120.298 303.353 120.758V121.311C303.353 121.403 303.353 121.863 303.353 122.323C303.353 123.152 303.261 124.256 303.261 124.9C303.445 126.189 304.55 127.201 305.931 127.293C307.035 127.293 308.048 126.925 308.876 126.189C309.06 126.097 309.06 125.821 308.968 125.637L308.876 125.361C308.692 125.176 308.508 125.084 308.232 125.268C307.771 125.453 307.219 125.545 306.759 125.545C306.483 125.545 305.746 125.361 305.746 123.612V120.943C305.746 119.838 305.746 118.733 305.839 117.721H308.784C308.968 117.721 309.244 117.537 309.244 117.353L309.428 116.524C309.336 116.432 309.336 116.248 309.244 116.248Z" fill="white"/>
<path d="M75.2718 47.5848C75.1798 46.2042 74.4435 44.9156 73.2469 44.2713C71.8663 43.2588 70.2095 42.7065 68.5527 42.7065C67.9084 42.7986 67.6323 42.7986 67.6323 43.0747C67.6323 43.3508 67.9084 43.3508 68.1846 43.4429H68.3687C68.8289 43.5349 69.197 43.9951 69.105 44.5474V44.6394C69.105 44.9156 69.197 45.0996 69.197 45.2837C69.197 45.4678 69.2891 45.928 69.2891 46.4803C69.3811 47.3087 69.6572 48.137 70.1175 48.8734C70.4856 49.6097 71.1299 50.254 71.8663 50.7142C72.2344 50.8983 72.6946 50.9904 73.0628 50.9904C73.431 50.9904 73.7992 50.8983 74.0753 50.7142C74.1673 50.7142 75.4559 49.8859 75.2718 47.5848Z" fill="white"/>
<path d="M78.4013 47.3087C78.3092 47.2166 78.2172 47.1246 78.0331 47.1246C77.3888 46.9405 76.6525 47.4928 75.8241 48.8734C75.2718 49.8859 74.8116 50.9904 74.6275 52.1869L74.8116 52.279C74.8116 52.279 75.548 50.9904 75.9161 50.3461L76.1923 50.0699C76.4684 49.5177 76.8366 48.9654 77.3888 48.5973C77.4809 48.5052 77.5729 48.5052 77.6649 48.5052C77.849 48.5052 78.1252 48.3211 78.2172 48.137C78.4013 47.8609 78.4933 47.5848 78.4013 47.3087Z" fill="white"/>
<path d="M63.5824 102.81C64.2267 102.81 64.779 103.363 64.779 104.007C64.779 104.651 64.2267 105.203 63.5824 105.203C62.9382 105.203 62.3859 104.651 62.3859 104.007C62.3859 103.363 62.9382 102.81 63.5824 102.81ZM84.1079 102.81C84.7522 102.81 85.3045 103.363 85.3045 104.007C85.3045 104.651 84.7522 105.203 84.1079 105.203C83.4636 105.203 82.9114 104.651 82.9114 104.007C82.9114 103.363 83.4636 102.81 84.1079 102.81ZM92.5758 86.7028H88.9862L88.3419 89.3721H60.6371L56.9554 79.3394L55.6668 75.8418L54.2862 72.3442L51.0647 63.6002L41.4002 61.5752L40.5718 64.9808L46.9228 66.4535L57.2315 94.3424L59.6246 100.601C58.7042 101.522 58.244 102.81 58.244 104.099C58.244 105.479 58.7962 106.86 59.7167 107.873C60.6371 108.885 62.0177 109.437 63.3984 109.437C64.5029 109.437 65.6074 109.069 66.5278 108.333C67.4482 107.596 68.0925 106.676 68.3687 105.572H78.9535C79.5978 107.873 81.7148 109.437 84.1079 109.437C86.9612 109.437 89.3543 107.136 89.3543 104.191C89.3543 104.191 89.3543 104.191 89.3543 104.099C89.3543 103.363 89.1702 102.718 88.8941 102.074C88.1578 100.141 86.2249 98.8524 84.1079 98.9445C81.9909 98.8524 80.058 100.049 79.3217 102.074H68.2766C67.5403 100.141 65.6074 98.8524 63.4904 98.9445H63.6745L63.1222 97.3798L91.1952 97.1957L92.5758 86.7028Z" fill="white"/>
<path d="M87.053 80.2595C86.2246 79.9834 84.844 79.6152 83.0952 79.3391C83.8315 76.854 84.1997 74.2768 84.2917 71.7916H90.4586C90.1825 74.9211 88.9859 77.8664 87.053 80.2595ZM85.3963 82.1924C83.8315 83.6651 81.9907 84.7696 80.0578 85.5059C81.0703 84.2174 81.9907 82.7447 82.5429 81.18C83.8315 81.4561 84.936 81.6402 85.7644 81.9163L85.3963 82.1924ZM75.1795 86.3343V80.3516C77.0204 80.4436 78.7692 80.6277 80.6101 80.9038C79.2294 84.0333 77.2965 86.1502 75.1795 86.3343ZM57.7835 70.9632V70.8712C57.8756 62.1272 64.5026 54.5797 73.3387 54.3956H74.1671V87.3468C65.1469 87.3468 57.7835 79.9834 57.7835 70.9632ZM80.8862 61.4829C78.9533 61.759 77.1124 61.851 75.1795 61.851V55.224C77.4806 55.316 79.5055 57.8012 80.8862 61.4829ZM75.1795 69.8587V63.7839H75.6398C77.5726 63.7839 79.5055 63.5998 81.4384 63.3237C81.9907 65.4407 82.2668 67.6497 82.3589 69.8587H75.1795ZM75.1795 71.7916H82.3589C82.2668 74.2768 81.8986 76.6699 81.2543 79.063C79.2294 78.6948 77.2045 78.5107 75.1795 78.4187V71.7916ZM85.6724 59.7341L86.2246 60.2863C85.1201 60.6545 83.9236 60.9306 82.8191 61.2067C82.2668 59.4579 81.3464 57.7091 80.2419 56.2364C82.1748 56.9728 84.1077 58.1693 85.6724 59.7341ZM87.5132 61.851C89.262 64.1521 90.2745 67.0054 90.3665 69.8587H84.1997C84.1997 67.5577 83.8315 65.2566 83.2793 62.9555C84.752 62.6794 86.1326 62.3112 87.5132 61.851ZM87.053 58.3534C83.8315 55.224 79.5976 53.4752 75.1795 53.2911C65.331 52.9229 57.1392 60.5624 56.7711 70.3189C56.7711 70.503 56.7711 70.5951 56.7711 70.7792C56.7711 80.1675 64.0424 88.3593 75.1795 88.3593C79.5055 88.3593 83.6474 86.6105 86.7769 83.6651C90.3665 80.3516 92.3915 75.6574 92.3915 70.7792C92.2994 66.085 90.4586 61.5749 87.053 58.3534Z" fill="white"/>
<path d="M65.7912 71.1475H58.6119C58.7039 74.461 59.8084 77.6825 61.8334 80.3517C63.4901 79.7995 65.2389 79.3392 66.9877 79.1552C66.1594 76.578 65.7912 73.9087 65.7912 71.1475Z" fill="white"/>
<path d="M68.1846 82.2848C67.8164 81.5485 67.5403 80.8121 67.2641 79.9837C65.6074 80.1678 64.0427 80.536 62.4779 81.0882C62.7541 81.3644 63.0302 81.6405 63.3063 81.9166C65.5153 84.1256 68.3687 85.6904 71.4981 86.2426C70.0254 85.2301 68.9209 83.8495 68.1846 82.2848Z" fill="white"/>
<path d="M72.6026 79.7076C71.1299 79.7076 69.5652 79.7996 68.0925 79.8917C68.3687 80.536 68.6448 81.2723 68.9209 81.9166C70.1175 84.3097 71.6822 85.8744 73.3389 86.2426V79.7076H72.6026Z" fill="white"/>
<path d="M68.0925 59.4583C68.8289 57.8935 69.8413 56.5129 71.222 55.5004C67.6323 56.1447 64.4108 58.0776 62.1098 60.9309C63.7665 61.3912 65.3313 61.8514 66.988 62.1275C67.2641 61.2071 67.6323 60.2867 68.0925 59.4583Z" fill="white"/>
<path d="M67.6323 63.0479C66.988 65.441 66.6198 67.8341 66.6198 70.3193H73.3389V63.324C70.5777 63.232 69.105 63.232 67.6323 63.0479Z" fill="white"/>
<path d="M66.8037 62.9556C65.0548 62.5874 63.306 62.1272 61.5572 61.667C59.7164 64.2442 58.7039 67.1895 58.6119 70.319H65.7912C65.7912 67.8338 66.1594 65.3487 66.8037 62.9556Z" fill="white"/>
<path d="M68.8284 59.8265C68.4603 60.6549 68.0921 61.3912 67.816 62.2196C69.1966 62.4037 70.6693 62.4037 73.3385 62.4957V55.3164C71.6818 55.6846 70.117 57.3413 68.8284 59.8265Z" fill="white"/>
<path d="M67.8164 79.0633C69.3811 78.8792 71.0379 78.8792 72.6026 78.8792H73.3389V71.2397H66.6198C66.6198 73.8169 66.988 76.4861 67.8164 79.0633Z" fill="white"/>
<path d="M305.838 69.9511H306.206C306.39 69.9511 306.574 69.9511 306.667 69.8591C306.759 69.767 306.851 69.675 306.759 69.5829C306.759 69.4909 306.759 69.3989 306.667 69.3068C306.574 69.2148 306.39 69.2148 306.206 69.2148H305.838V69.9511ZM305.102 68.6625H306.482C306.759 68.6625 307.127 68.7546 307.311 68.9386C307.495 69.1227 307.587 69.3068 307.587 69.5829C307.587 69.767 307.495 69.9511 307.403 70.1352C307.219 70.3193 307.035 70.4113 306.759 70.5034C306.851 70.5034 306.943 70.5954 307.035 70.6874C307.127 70.7795 307.219 70.8715 307.311 71.0556L307.771 71.976H306.851C306.667 71.6079 306.482 71.2397 306.298 70.8715C306.206 70.7795 306.114 70.6874 306.022 70.6874H305.93V71.884H305.194L305.102 68.6625ZM308.783 70.2272C308.783 68.9386 307.771 67.8341 306.39 67.8341C305.102 67.8341 303.997 68.8466 303.997 70.2272C303.997 71.5158 305.01 72.6203 306.39 72.6203C307.035 72.6203 307.587 72.3442 308.047 71.884C308.507 71.4238 308.783 70.8715 308.783 70.2272ZM309.336 70.2272C309.336 71.884 308.047 73.1726 306.39 73.1726C304.734 73.1726 303.445 71.884 303.445 70.2272C303.445 68.5705 304.734 67.2819 306.39 67.2819C307.403 67.2819 308.415 67.8341 308.968 68.7546C309.244 69.2148 309.336 69.675 309.336 70.2272Z" fill="white"/>
</svg>
