<svg width="350" height="170" viewBox="0 0 350 170" fill="none" xmlns="http://www.w3.org/2000/svg">
<path d="M212.88 85.5073C207.263 89.8582 200.937 92.0926 193.883 92.0782C186.86 92.0639 180.567 89.811 175.027 85.5134C164.136 94.2603 147.935 94.246 137.069 85.5268C129.795 91.038 121.642 93.178 112.639 91.5694C105.164 90.2326 99.0248 86.4901 94.2614 80.5542C84.8532 68.8321 85.4204 51.9128 95.5225 40.7324C105.916 29.2289 124.004 27.0109 137.106 37.2802C142.666 32.9714 148.977 30.7113 156.031 30.7093C163.086 30.7072 169.401 32.9581 174.965 37.2731C186.075 28.4348 202.096 28.6236 212.92 37.2638C220.216 31.7362 228.393 29.5951 237.421 31.2274C244.865 32.5734 250.986 36.3067 255.723 42.2251C265.127 53.9749 264.591 70.7639 254.532 81.9863C244.211 93.5022 226.05 95.832 212.88 85.5073ZM217.952 42.3636C222.292 48.0051 224.529 54.3493 224.516 61.4302C224.502 68.5007 222.242 74.8368 217.955 80.429C226.781 87.0831 240.273 86.8584 248.995 77.6406C257.553 68.5972 257.572 54.2703 249.05 45.2044C240.327 35.924 226.783 35.6973 217.952 42.3626V42.3636ZM132.044 80.4362C127.732 74.767 125.482 68.4371 125.484 61.345C125.487 54.2591 127.755 47.9415 132.043 42.3493C122.979 35.5742 109.502 36.0543 100.949 45.2085C92.38 54.3791 92.4086 68.4997 101.012 77.6426C109.583 86.7517 123.038 87.1846 132.046 80.4362H132.044ZM180.039 80.4382C188.779 87.0461 200.781 86.0582 207.838 80.3972C203.543 74.7957 201.299 68.4505 201.295 61.3737C201.29 54.295 203.546 47.9548 207.857 42.3667C199.39 35.8255 187.093 36.6237 180.082 42.4108C184.352 47.9979 186.595 54.3001 186.595 61.3666C186.595 68.4577 184.34 74.7845 180.039 80.4393V80.4382ZM169.928 42.3328C161.715 36.1035 149.887 36.3477 142.141 42.3657C146.431 47.9723 148.694 54.295 148.686 61.3932C148.678 68.4854 146.416 74.8101 142.144 80.4208C150.508 86.9282 162.773 86.21 169.892 80.4085C161.276 69.4569 161.154 53.4291 169.927 42.3328H169.928ZM212.939 75.4113C216.226 70.8142 217.721 65.7831 217.498 60.2319C217.28 54.8059 214.798 49.4578 212.85 47.487C206.729 55.563 206.833 67.3733 212.939 75.4113ZM174.989 47.4675C168.497 55.7436 169.223 68.2833 175.033 75.3025C181.351 67.1096 180.907 54.8869 174.989 47.4675ZM137.091 47.4193C130.566 55.9128 131.351 68.2002 137.109 75.32C143.062 67.6544 143.366 55.6451 137.091 47.4193Z" fill="white"/>
<path d="M126.542 110.536C125.509 109.302 124.484 108.08 123.37 106.75C123.711 106.717 123.931 106.677 124.151 106.677C127.587 106.673 131.024 106.688 134.46 106.661C135.018 106.657 135.314 106.869 135.607 107.312C141.179 115.727 146.766 124.131 152.35 132.538C153.488 134.251 154.625 135.963 155.761 137.677C155.908 137.898 156.045 138.123 156.233 138.421C156.009 138.459 155.844 138.511 155.68 138.511C152.403 138.516 149.127 138.507 145.851 138.524C145.425 138.527 145.18 138.395 144.96 138.025C144.007 136.419 143.022 134.833 142.049 133.24C135.312 133.24 128.575 133.24 121.835 133.24C120.883 134.821 119.917 136.41 118.97 138.009C118.78 138.331 118.591 138.528 118.172 138.524C114.922 138.506 111.673 138.514 108.423 138.512C108.327 138.512 108.23 138.491 108.001 138.464C114.21 129.114 120.362 119.85 126.546 110.538L126.542 110.536ZM138.279 127.084C136.113 123.522 133.968 119.993 131.838 116.492C129.775 120.043 127.687 123.589 125.439 127.084H138.279Z" fill="white"/>
<path d="M207.36 115.544C204.767 112.659 202.17 109.769 199.49 106.788C199.749 106.733 199.887 106.678 200.025 106.678C203.326 106.673 206.627 106.679 209.928 106.667C210.312 106.666 210.569 106.794 210.804 107.095C213.563 110.628 216.345 114.143 219.089 117.686C220.251 119.187 221.233 120.809 221.932 122.588C223.908 127.617 222.147 133.156 217.631 136.097C215.684 137.365 213.522 138.096 211.271 138.578C206.264 139.652 201.282 139.535 196.343 138.158C194.798 137.727 193.322 137.116 191.974 136.236C189.318 134.501 187.471 132.145 186.839 128.994C186.039 124.998 187.179 121.589 190.25 118.898C192.32 117.084 194.808 116.077 197.441 115.414C199.229 114.964 201.05 114.76 202.895 114.748C204.268 114.739 205.595 114.96 206.889 115.414C207.055 115.471 207.228 115.509 207.359 115.545L207.36 115.544ZM204.772 133.254C205.539 133.18 206.313 133.145 207.073 133.027C208.904 132.741 210.556 132.044 211.894 130.722C214.074 128.569 214.129 125.492 212.038 123.261C211.05 122.206 209.856 121.453 208.473 121.062C206.233 120.429 203.959 120.31 201.683 120.865C199.77 121.331 198.108 122.241 196.899 123.851C195.449 125.782 195.46 128.085 196.91 130.012C197.665 131.017 198.638 131.747 199.788 132.237C201.378 132.914 203.044 133.213 204.772 133.255V133.254Z" fill="white"/>
<path d="M154.508 115.611H163.857C163.87 115.914 163.893 116.174 163.893 116.435C163.888 119.909 163.865 123.383 163.883 126.857C163.888 127.788 163.953 128.729 164.107 129.647C164.424 131.529 165.562 132.686 167.417 133.11C168.927 133.455 170.431 133.448 171.899 132.908C173.565 132.295 174.619 131.169 174.75 129.322C174.808 128.498 174.874 127.67 174.878 126.844C174.893 123.343 174.887 119.842 174.889 116.342C174.889 116.129 174.889 115.917 174.889 115.717C175.474 115.529 182.577 115.463 184.116 115.628C184.134 115.844 184.167 116.074 184.167 116.304C184.17 120.526 184.151 124.749 184.172 128.971C184.194 133.13 182.154 135.931 178.539 137.706C176.795 138.562 174.913 138.933 172.999 139.119C170.262 139.384 167.525 139.392 164.796 138.986C163.049 138.727 161.35 138.298 159.764 137.507C156.509 135.885 154.694 133.29 154.537 129.598C154.521 129.225 154.51 128.85 154.51 128.477C154.508 124.495 154.509 120.513 154.509 116.531C154.509 116.243 154.509 115.955 154.509 115.614L154.508 115.611Z" fill="white"/>
<path d="M234.784 115.254C234.942 115.85 234.986 137.384 234.83 138.458H225.458C225.31 137.879 225.257 116.476 225.41 115.254H234.784Z" fill="white"/>
</svg>
