<svg width="350" height="170" viewBox="0 0 350 170" fill="none" xmlns="http://www.w3.org/2000/svg">
<path d="M92.0931 56.5663C86.4222 50.5096 79.0433 46.3205 70.9368 44.5561C69.4481 44.2311 67.9414 43.986 66.4243 43.8235C64.9253 43.6636 63.4186 43.5811 61.9092 43.5811C60.4051 43.5811 58.9035 43.6636 57.4096 43.8235C55.8874 43.9835 54.3755 44.2285 52.8817 44.5561C44.5817 46.3643 37.0506 50.7108 31.3358 56.9945C34.8317 57.402 38.2709 58.2094 41.5811 59.4037C55.859 47.1949 76.538 46.0342 92.0931 56.5663Z" fill="white"/>
<path d="M82.1777 59.4217C84.879 58.4441 87.668 57.7244 90.506 57.2678C84.0095 53.0503 76.4242 50.8191 68.6789 50.8474C64.4554 50.8423 60.2551 51.4975 56.2354 52.7924C56.6353 52.7253 57.0146 52.666 57.4093 52.6092C58.9006 52.4029 60.4022 52.2997 61.9063 52.2997C64.9611 52.2997 68.0004 52.7253 70.9365 53.5637C75.0387 54.7451 78.8598 56.7364 82.1777 59.4217Z" fill="white"/>
<path d="M48.4625 110.444C48.0806 110.225 47.6833 110.034 47.2731 109.874C44.4454 108.448 41.8499 106.606 39.5665 104.411C36.1325 101.106 33.5241 97.041 31.9503 92.5449C33.1706 98.9756 36.0809 104.963 40.3818 109.897C41.13 110.777 41.9298 111.628 42.7735 112.454C45.7122 115.291 49.074 117.649 52.7428 119.447L52.8821 119.516V117.943C52.864 114.832 51.1767 111.969 48.4625 110.444Z" fill="white"/>
<path d="M85.7901 62.8345C80.3204 64.4931 75.2609 67.2815 70.9368 71.0192C69.3114 72.4225 67.802 73.9547 66.4243 75.603C65.7819 76.3666 65.173 77.1559 64.5925 77.9633C63.6043 79.3407 62.709 80.7801 61.9092 82.2736C61.1146 80.7801 60.2193 79.3381 59.2363 77.9607C58.6584 77.1481 58.0469 76.3743 57.4096 75.6004C56.0293 73.9547 54.52 72.4225 52.8972 71.0167C49.8011 68.3443 46.3232 66.1517 42.577 64.5112C41.4341 64.0107 40.255 63.5593 39.0578 63.1621C38.707 63.0486 38.369 62.9377 38.0258 62.8345C37.8659 62.7855 37.7059 62.7416 37.5434 62.6952C34.4628 61.7975 31.2919 61.2558 28.0875 61.0856C26.217 63.7915 24.6999 66.7244 23.575 69.8172C23.0384 71.2901 22.5946 72.7939 22.2463 74.3236C21.609 77.112 21.2891 79.9624 21.2891 82.8231V85.7173C21.2891 101.62 31.0726 115.291 45.139 121.467L45.3712 121.565C46.7747 122.168 48.2118 122.697 49.6747 123.146C50.6732 123.45 51.6897 123.716 52.7217 123.946V121.049C52.7217 121.049 52.7114 121.049 52.7062 121.046C39.1507 114.69 29.8032 101.264 29.8032 85.7302C29.8058 81.7371 30.4405 77.7672 31.6789 73.9702C31.9602 73.0777 32.2801 72.2007 32.6387 71.3417C32.7548 71.0683 32.8683 70.7897 32.9922 70.5317C32.9922 70.5317 32.9922 70.5317 32.9948 70.5317V73.4285C33.4824 73.5368 33.9674 73.6632 34.4499 73.7948C35.4329 74.0631 36.3927 74.3752 37.3344 74.7311C41.3696 76.2531 45.0513 78.5849 48.1551 81.5772C49.9662 83.3286 51.5581 85.2942 52.8946 87.43C53.5783 88.5238 54.1898 89.6613 54.7238 90.835C56.4963 94.7042 57.4148 98.9114 57.4096 103.168V100.268C57.4096 96.0146 56.4886 91.8126 54.7109 87.9485C56.4886 91.8126 57.4096 96.0146 57.4122 100.268V116.037C58.1733 115.201 58.9912 114.417 59.8607 113.692L60.3509 113.297C61.855 112.111 63.4547 111.051 65.1369 110.13C65.56 109.895 65.9908 109.663 66.4398 109.433V99.7936C66.5172 94.3818 68.0729 89.0938 70.9368 84.5023C72.2707 82.3665 73.8625 80.4009 75.6763 78.652C78.7827 75.6598 82.4644 73.3279 86.497 71.8008C87.9108 71.2695 89.3608 70.8387 90.8366 70.5111C92.6865 74.5661 93.5766 78.9383 93.5018 83.3028V82.8231C93.5069 78.5823 92.5988 74.3907 90.8366 70.5317V73.4285C92.4001 76.8541 93.2902 80.5454 93.4682 84.2985C93.2954 87.7061 92.5368 91.0929 91.1823 94.3044C90.5089 95.8986 89.6988 97.4308 88.7623 98.8856C87.6296 100.647 86.3215 102.291 84.8561 103.787C84.6574 103.988 84.4562 104.192 84.2472 104.39C78.4524 110.003 67.2189 113.978 66.4243 114.45C64.9795 115.302 63.6146 116.284 62.3504 117.386C62.144 117.569 61.9428 117.752 61.7467 117.938C60.5108 119.099 59.4685 120.448 58.6506 121.933C58.4468 122.32 58.2662 122.718 58.1088 123.125C57.6934 124.178 57.4561 125.289 57.4096 126.419C58.5629 126.043 80.5887 118.851 89.0332 112.033C90.6225 110.491 92.2659 108.982 93.6772 107.277C94.8434 105.863 95.909 104.372 96.8687 102.812C97.7305 101.408 98.5019 99.951 99.1779 98.4497C101.389 93.5357 102.532 88.2116 102.532 82.8231C102.532 75.0536 100.158 67.4698 95.7284 61.0856C92.3562 61.2636 89.0203 61.8517 85.7901 62.8345ZM49.7392 120.267C50.1907 120.404 50.6448 120.533 51.104 120.654C50.6474 120.533 50.1933 120.404 49.7392 120.267Z" fill="white"/>
<path d="M69.0925 66.7862C69.1983 66.2832 69.2525 65.7724 69.2525 65.2591C69.2525 62.7725 67.9883 60.4535 65.8984 59.1044C65.8752 59.0889 65.8494 59.0838 65.8236 59.0838C65.0676 59.3185 63.9066 59.628 62.2167 59.9763C60.6351 60.3013 58.8136 60.5954 57.4798 61.5781C55.6737 62.9169 55.1861 65.3803 55.9008 67.4543C56.5922 69.4637 58.2409 70.5084 60.3926 70.3227C63.7467 70.0363 66.0687 67.2273 69.077 66.8094C69.0693 66.8249 69.0616 66.8378 69.0486 66.8481C68.9274 66.9538 68.8809 67.1241 68.9325 67.2763C68.9325 67.3021 68.9325 67.3304 68.9325 67.3562C65.8546 68.1301 63.966 70.5574 60.6764 70.8386C58.3338 71.0423 56.262 69.7784 55.5164 67.591C54.7423 65.3442 55.2583 62.4681 57.2192 61.021C58.6072 59.9892 60.4726 59.6822 62.1212 59.3443C63.4861 59.0657 64.4923 58.9058 65.2173 58.7252C65.225 58.7355 65.2276 58.7459 65.2302 58.7562C65.256 58.9058 65.354 58.9986 65.5037 59.0451C65.3644 58.9986 65.2715 58.9058 65.2457 58.7613C65.2405 58.7278 65.2121 58.7097 65.1812 58.6943C64.1646 58.1861 63.0449 57.9204 61.9097 57.9204V57.9256C58.6717 57.9256 55.8156 60.0511 54.8842 63.1542C53.7206 67.0338 55.924 71.1249 59.8044 72.2882C63.6847 73.4516 67.7767 71.2487 68.9403 67.3691C68.9506 67.3408 68.9506 67.3098 68.9403 67.2814C68.8887 67.1292 68.9351 66.959 69.0564 66.8532C69.0744 66.8352 69.0873 66.812 69.0925 66.7862Z" fill="white"/>
<path d="M302.271 105.043H302.137L300.501 99.5047C300.346 99.0301 300.132 98.8805 299.572 98.8805H297.66L295.289 108.425H297.423L299.059 101.811H299.195L301.022 107.782C301.182 108.272 301.388 108.425 301.977 108.425H303.545L305.914 98.8805H303.788L302.271 105.043Z" fill="white"/>
<path d="M313.571 98.8804L310.542 102.804H310.457L309.339 98.8804H307.103L308.973 104.849L308.088 108.425H310.253L311.109 104.947L315.955 98.8804H313.571Z" fill="white"/>
<path d="M321.706 98.8599H319.384C318.432 98.8599 317.857 98.9656 317.261 99.5666C316.884 99.9484 316.263 100.671 315.594 103.413C314.911 106.248 315.174 107.364 315.731 107.924C316.005 108.198 316.446 108.404 317.478 108.404H319.836C320.778 108.404 321.35 108.293 321.954 107.695C322.292 107.364 322.677 106.753 323.193 104.857H321.09C320.708 106.165 320.548 106.356 320.424 106.48C320.3 106.604 320.125 106.655 319.671 106.655H318.143C317.695 106.655 317.558 106.614 317.478 106.521C317.351 106.392 317.233 106.064 317.829 103.65C318.425 101.236 318.688 100.934 318.809 100.813C318.93 100.691 319.108 100.635 319.542 100.635H321.033C321.498 100.635 321.614 100.681 321.732 100.782C321.851 100.882 321.918 101.117 321.688 102.329L323.768 102.309C324.067 100.588 323.943 99.7859 323.497 99.3345C323.208 99.0636 322.772 98.8599 321.706 98.8599Z" fill="white"/>
<path d="M141.093 67.6504C140.004 67.6504 139.555 67.9857 138.993 69.0769L130.848 84.7267H130.396L129.759 69.487C129.715 68.0992 129.377 67.6504 127.953 67.6504H120.445L113.912 93.9201H119.655L124.459 74.5918H124.911L125.773 92.1041C125.85 93.5667 126.113 93.9433 127.537 93.9433H129.676C130.693 93.9433 131.028 93.6441 131.591 92.5916L141.351 74.793H141.838L137.068 93.9201H143.002L149.54 67.6504H141.093Z" fill="white"/>
<path d="M164.997 73.284H158.392C156.478 73.284 155.162 73.622 154.073 74.7466C153.284 75.536 152.647 76.6245 151.821 79.8902H157.185C157.559 78.652 157.737 78.198 158.047 77.8988C158.356 77.5996 158.805 77.5273 159.595 77.5273H162.149C162.933 77.5273 163.274 77.6382 163.496 77.8627C163.8 78.2006 163.836 78.652 163.346 80.6408L162.897 82.48C161.137 82.0647 159.337 81.8635 157.528 81.879C154.076 81.879 152.35 82.2917 151.034 83.6046C150.172 84.4301 149.525 85.6321 149.009 87.8453C148.4 90.2856 148.586 91.9751 149.525 92.9115C150.198 93.5873 150.949 93.9639 152.979 93.9639H154.816C156.581 93.9639 157.67 93.5873 160.634 91.5985L160.118 93.9201L165.596 93.9252L168.898 80.6769C169.765 77.1894 169.726 75.4998 168.64 74.4474C167.851 73.6607 166.687 73.284 164.997 73.284ZM161.318 88.6295C159.102 89.6407 158.24 89.9425 157.159 89.9425H156.07C155.319 89.9425 154.907 89.8316 154.682 89.6046C154.349 89.2667 154.349 88.6295 154.607 87.5797C154.84 86.6768 155.02 86.2641 155.356 85.9262C155.846 85.4 156.447 85.2891 158.547 85.2891H162.182L161.318 88.6295Z" fill="white"/>
<path d="M183.978 68.1377H178.235L176.919 73.2786H173.769L172.69 77.7463H175.805L173.178 88.2552C172.577 90.7728 172.763 92.158 173.591 92.9835C174.316 93.698 175.278 94.1081 176.896 94.1081C178.101 94.0952 179.298 93.9302 180.462 93.6232L182.598 93.1073L183.54 89.4238H180.761C179.672 89.4238 179.448 89.3464 179.184 89.0833C178.921 88.8202 178.921 88.3326 179.146 87.4324L181.586 77.7438H186.354L187.443 73.2786H182.704L183.978 68.1377Z" fill="white"/>
<path d="M202.225 73.2686H196.819C194.629 73.2686 193.179 73.5704 191.791 74.9581C190.663 76.1215 189.724 77.6228 188.375 83.1764C186.984 88.8513 187.247 91.2554 188.713 92.7206C189.505 93.5074 190.594 93.9201 192.583 93.9201L198.277 93.9098C200.38 93.9098 201.654 93.4609 202.782 92.3337C203.832 91.2838 204.397 90.0818 205.411 86.0294H200.081C199.518 88.2426 199.175 88.8101 198.917 89.068C198.579 89.4085 198.189 89.4446 197.415 89.4446H194.9C193.961 89.4446 193.543 89.3698 193.285 89.1454C192.947 88.7688 192.911 87.7938 193.961 83.5892C195.049 79.1602 195.387 78.4869 195.725 78.1103C196.063 77.7724 196.438 77.6976 197.377 77.6976H199.817C200.767 77.6976 201.141 77.7388 201.365 77.9968C201.665 78.2702 201.665 78.9744 201.291 80.8497H206.611C207.385 77.3983 207.297 75.634 206.095 74.4319C205.341 73.6452 204.252 73.2686 202.225 73.2686Z" fill="white"/>
<path d="M225.538 73.2454H223.848C221.933 73.2454 221.183 73.6168 217.733 76.1318L220.21 66.2239H214.428L207.519 93.9201H213.301L216.98 79.0596C219.116 78.0845 219.833 77.8575 220.922 77.8575H221.97C222.798 77.8575 223.136 78.0123 223.363 78.2702C223.734 78.6468 223.768 79.3227 223.51 80.2951L220.133 93.9201L225.876 93.9356L229.289 80.2642C230.004 77.4138 229.929 75.4611 228.84 74.3726C228.053 73.5858 227.001 73.2454 225.538 73.2454Z" fill="white"/>
<path d="M255.704 69.0382C254.728 68.0631 253.152 67.6504 250.301 67.6504H237.917L231.387 93.9201H237.496L239.718 84.9898H247.827C250.043 84.9898 251.919 84.7267 253.382 83.2616C254.357 82.2865 255.709 80.5969 256.493 76.9598C257.468 72.6495 257.019 70.3537 255.704 69.0382ZM250.425 76.284C249.788 78.7964 249.3 79.3975 248.962 79.7354C248.549 80.1094 247.984 80.2229 246.596 80.2229H240.92L242.834 72.3786H247.909C249.638 72.3786 250.092 72.4896 250.35 72.7914C250.727 73.1293 251.026 73.8438 250.425 76.284Z" fill="white"/>
<path d="M272.006 73.2788H266.263C264.086 73.2788 262.623 73.5806 261.232 74.9684C260.1 76.1317 259.168 77.6304 257.796 83.1764C256.407 88.8513 256.671 91.2554 258.136 92.7205C258.928 93.5073 259.978 93.92 262.006 93.92H267.796C269.973 93.92 271.397 93.5821 272.788 92.1917C273.952 91.0696 274.888 89.5684 276.248 84.025C277.636 78.3063 277.373 75.946 275.91 74.4809C275.12 73.6915 274.032 73.2788 272.006 73.2788ZM270.652 83.5994C269.558 88.0284 269.223 88.7042 268.846 89.0783C268.508 89.4188 268.17 89.4936 267.195 89.4936H264.341C263.402 89.4936 262.992 89.4188 262.765 89.1918C262.391 88.8152 262.352 87.804 263.407 83.5994C264.496 79.1704 264.839 78.4585 265.174 78.1205C265.51 77.7826 265.848 77.7078 266.823 77.7078H269.713C270.652 77.7078 271.065 77.7826 271.289 78.007C271.666 78.3811 271.666 79.3613 270.652 83.5994Z" fill="white"/>
<path d="M309.833 74.3726C309.043 73.5858 308.032 73.2453 306.566 73.2453H304.84C302.926 73.2453 302.214 73.6607 298.72 76.1757L299.435 73.284H293.731L288.55 93.9201L294.329 93.9356L298.011 79.075C300.111 78.1 300.823 77.873 301.951 77.873H303.001C303.826 77.873 304.131 78.0277 304.389 78.2857C304.766 78.6623 304.766 79.3381 304.541 80.3106L301.125 93.9356H306.868L310.323 80.2642C311.032 77.4138 310.921 75.4611 309.833 74.3726Z" fill="white"/>
<path d="M322.857 77.7466H327.622L328.711 73.2815H323.982L325.256 68.1405H319.516L318.202 73.2815H315.047L313.961 77.7466H317.075L314.448 88.2555C313.847 90.7731 314.036 92.1583 314.861 92.9837C315.584 93.6982 316.549 94.1084 318.164 94.1084C319.369 94.0955 320.566 93.9304 321.729 93.6234L323.868 93.1075L324.807 89.424H322.031C320.942 89.424 320.713 89.3466 320.452 89.0835C320.192 88.8204 320.192 88.3329 320.416 87.4326L322.857 77.7466Z" fill="white"/>
<path d="M287.343 71.8347C287.451 71.8347 287.562 71.8321 287.671 71.8192C289.42 71.6464 290.697 70.0884 290.524 68.3421C290.362 66.7092 288.984 65.4659 287.343 65.4737C285.586 65.4737 284.162 66.895 284.159 68.6516C284.159 70.4083 285.581 71.8321 287.338 71.8347H287.343Z" fill="white"/>
<path d="M287.342 75.415C285.797 75.415 284.298 74.8862 283.098 73.9111L278.077 93.9203H283.753L288.421 75.3247C288.297 75.3453 288.178 75.3686 288.052 75.3814C287.817 75.4047 287.579 75.415 287.342 75.415Z" fill="white"/>
</svg>
