<svg width="30" height="31" viewBox="0 0 30 31" fill="none" xmlns="http://www.w3.org/2000/svg">
<path d="M21.8793 0.5H8.12073C3.64288 0.5 0 4.14288 0 8.62073V22.3795C0 26.8571 3.64288 30.5 8.12073 30.5H21.8795C26.3571 30.5 30 26.8571 30 22.3795V8.62073C30 4.14288 26.3571 0.5 21.8793 0.5ZM15 23.7029C10.4768 23.7029 6.7971 20.0232 6.7971 15.5C6.7971 10.9768 10.4768 7.2971 15 7.2971C19.5232 7.2971 23.2029 10.9768 23.2029 15.5C23.2029 20.0232 19.5232 23.7029 15 23.7029ZM24.2165 8.62073C22.8799 8.62073 21.7927 7.53354 21.7927 6.19687C21.7927 4.8602 22.8799 3.77278 24.2165 3.77278C25.5532 3.77278 26.6406 4.8602 26.6406 6.19687C26.6406 7.53354 25.5532 8.62073 24.2165 8.62073Z" fill="white"/>
<path d="M15 10.5C12.2431 10.5 10 12.7429 10 15.5C10 18.2569 12.2431 20.5 15 20.5C17.7571 20.5 20 18.2569 20 15.5C20 12.7429 17.7571 10.5 15 10.5Z" fill="white"/>
</svg>
