<svg width="50" height="50" viewBox="0 0 50 50" fill="none" xmlns="http://www.w3.org/2000/svg">
<path d="M20.756 39.5319V36.0246C20.5409 36.0246 20.3486 36.0246 20.1563 36.0246C16.4826 36.0246 12.8088 36.0257 9.1351 36.0246C6.59807 36.0235 5.00108 34.4168 5 31.8657C5 24.3011 5 16.7354 5 9.17076C5 6.59807 6.60239 5 9.18156 5C19.482 5 29.7825 5 40.083 5C42.62 5 44.2311 6.61211 44.2311 9.15023C44.2321 16.7332 44.2321 24.3162 44.2311 31.8992C44.2311 34.4093 42.62 36.0235 40.1176 36.0246C36.4439 36.0268 32.7701 36.0246 29.0964 36.0246C28.9019 36.0246 28.7085 36.0246 28.4838 36.0246V39.4509C29.1796 39.5687 29.8636 39.6162 30.5065 39.8064C31.9003 40.2191 32.9689 41.6724 33.0284 43.1214C33.0565 43.8172 32.7809 44.1273 32.0808 44.1284C27.1104 44.1338 22.1401 44.1327 17.1708 44.1284C16.4383 44.1284 16.1724 43.8226 16.2157 43.089C16.3259 41.2435 17.858 39.6951 19.6927 39.5795C20.0309 39.5579 20.3702 39.5492 20.7538 39.5319H20.756ZM21.4097 28.3476C21.6863 25.5296 21.9596 22.7754 22.2157 20.0201C22.2298 19.871 22.1347 19.6765 22.0288 19.5588C20.756 18.1314 20.5561 16.5117 21.5004 14.8326C22.3022 13.4053 23.1331 11.9941 23.9618 10.583C24.4232 9.79745 25.0607 9.79205 25.5188 10.5711C26.3487 11.9822 27.1785 13.3934 27.9802 14.8207C28.9775 16.596 28.7096 18.3205 27.2757 19.736C27.1472 19.8635 27.0542 20.1077 27.0683 20.2881C27.2379 22.4037 27.4335 24.5172 27.6139 26.6318C27.6626 27.2001 27.6809 27.7706 27.7134 28.3303H31.494V27.6474C31.494 22.1531 31.494 16.6598 31.494 11.1654C31.494 10.3075 31.735 10.0633 32.5756 10.0622C34.3941 10.0589 36.2137 10.06 38.0322 10.0622C38.9874 10.0622 39.157 10.234 39.157 11.2021C39.157 16.6965 39.157 22.1898 39.157 27.6842V28.3282H42.714V27.7501C42.714 21.5717 42.714 15.3934 42.714 9.21506C42.714 7.44843 41.7794 6.51595 40.0106 6.51595C29.7458 6.51595 19.481 6.51595 9.21614 6.51595C7.45167 6.51595 6.51703 7.45167 6.51703 9.21938C6.51595 15.3977 6.51703 21.5761 6.51703 27.7544C6.51703 27.9457 6.51703 28.138 6.51703 28.3422H10.0741C10.0741 28.1196 10.0741 27.9273 10.0741 27.7339C10.0741 24.2395 10.0697 20.7452 10.0816 17.2508C10.0816 16.9547 10.127 16.6295 10.2556 16.3691C11.1805 14.4793 12.1324 12.6024 13.0746 10.7213C13.2497 10.3734 13.4388 10.0557 13.9045 10.0643C14.3388 10.073 14.5236 10.3615 14.6911 10.6986C15.6225 12.5646 16.5722 14.4231 17.4853 16.2989C17.643 16.623 17.7262 17.0174 17.7284 17.3805C17.7467 20.8208 17.7392 24.2611 17.7392 27.7015C17.7392 27.9111 17.7392 28.1196 17.7392 28.3498H21.4097V28.3476ZM6.51811 29.9478C6.51811 30.554 6.51811 31.1278 6.51811 31.7026C6.51811 33.6226 7.40521 34.5087 9.32527 34.5087C19.5188 34.5087 29.7123 34.5087 39.9058 34.5087C40.0495 34.5087 40.1943 34.5119 40.338 34.5076C41.6357 34.46 42.5736 33.6367 42.687 32.3509C42.7562 31.5664 42.7 30.7701 42.7 29.9478H6.51811ZM37.627 11.6311H33.091V28.3357H37.6022V26.8706C37.0111 26.7765 36.2429 27.0575 36.1381 26.1315C36.0786 25.5988 36.3585 25.4475 37.6065 25.2682V22.3076C37.0003 22.2525 36.2018 22.4448 36.1543 21.5631C36.097 20.5064 37.0608 20.8716 37.5968 20.7138V18.4772C37.0025 18.3756 36.1716 18.6425 36.1521 17.7176C36.1316 16.7354 37.0003 16.9677 37.6065 16.8726V14.6446C37.0198 14.5614 36.1943 14.8305 36.1532 13.9185C36.1067 12.8801 37.0479 13.2054 37.6248 13.0573V11.6322L37.627 11.6311ZM24.7474 12.2707C24.0083 13.5598 23.3016 14.7267 22.6609 15.9293C22.1866 16.8208 22.5042 17.9823 23.3189 18.6446C24.1498 19.3189 25.2638 19.3405 26.1023 18.6987C26.9429 18.0547 27.3136 16.9029 26.8543 16.0125C26.2147 14.7721 25.4875 13.576 24.7474 12.2707ZM31.3784 42.5995C30.9214 41.6022 30.2266 41.0987 29.199 41.0944C28.1736 41.09 27.1482 41.0922 26.1228 41.0922C24.0904 41.0922 22.058 41.0846 20.0255 41.0965C18.9656 41.103 18.1638 41.694 17.9369 42.5984L31.3784 42.5995ZM16.1541 28.3476V17.7089H14.6824V28.3476H16.1541ZM26.9073 36.0635H22.327V39.5125H26.9073V36.0635ZM11.6192 28.3368H13.0638V17.7068H11.6192V28.3368ZM23.6528 20.6306C23.4972 22.1401 23.3351 23.6982 23.172 25.28H26.071C25.9143 23.7068 25.7609 22.179 25.6064 20.6306H23.6528ZM13.8904 12.5214C13.2616 13.7791 12.69 14.9234 12.1054 16.0925H15.6797C15.0811 14.8974 14.5128 13.7629 13.8904 12.5214ZM26.1142 26.8792H23.1223V28.3325H26.1142V26.8792Z" fill="#E4022F"/>
<path d="M23.8333 31.4596C24.5713 31.4596 25.3093 31.452 26.0462 31.4628C26.5475 31.4704 26.8868 31.7567 26.916 32.1662C26.9452 32.5779 26.5821 32.9744 26.0819 32.982C24.607 33.0025 23.131 33.0015 21.6561 32.9852C21.132 32.9798 20.7852 32.6319 20.7895 32.2019C20.7938 31.7675 21.1374 31.4704 21.6745 31.4628C22.3941 31.4531 23.1137 31.4596 23.8333 31.4596Z" fill="#E4022F"/>
<path d="M28.46 32.1878C28.4719 31.774 28.8144 31.4574 29.2358 31.4682C29.6605 31.479 29.9717 31.8086 29.9587 32.2343C29.9457 32.6416 29.5838 32.9917 29.1905 32.9766C28.8015 32.9615 28.4481 32.579 28.46 32.1878Z" fill="#E4022F"/>
</svg>
