<svg width="50" height="50" viewBox="0 0 50 50" fill="none" xmlns="http://www.w3.org/2000/svg">
<path d="M25.6226 5.00003C36.4461 5.0184 45.2133 13.8191 45.1971 24.6491C45.1809 35.4693 36.3726 44.243 25.547 44.2235C14.7019 44.2041 5.93904 35.3828 5.97361 24.5194C6.00711 13.7327 14.8165 4.98166 25.6226 5.00003ZM25.6097 6.96115C15.8927 6.95142 7.95634 14.8424 7.93473 24.5334C7.91312 34.311 15.8084 42.2538 25.5611 42.2635C35.2997 42.2732 43.2295 34.3661 43.2371 24.6361C43.2446 14.8921 35.344 6.97087 25.6097 6.96115Z" fill="#E4022F"/>
<path d="M19.7025 24.6101C19.7025 22.3237 19.71 20.0373 19.6982 17.7521C19.6949 17.1297 19.8494 16.6046 20.4264 16.2966C21.0013 15.9898 21.5275 16.1432 22.0439 16.489C25.4519 18.7699 28.8663 21.0401 32.2774 23.3178C33.4066 24.0709 33.4055 25.1557 32.2753 25.9099C28.8652 28.1865 25.4508 30.4578 22.0418 32.7387C21.5253 33.0845 20.998 33.2347 20.4243 32.9278C19.8473 32.6188 19.6949 32.0926 19.6982 31.4702C19.71 29.1838 19.7025 26.8975 19.7025 24.6122V24.6101ZM30.6804 24.6111C27.6539 22.5938 24.702 20.6262 21.696 18.6219V30.6004C24.7052 28.5939 27.6464 26.6339 30.6804 24.6111Z" fill="#E4022F"/>
</svg>
