<svg width="50" height="50" viewBox="0 0 50 50" fill="none" xmlns="http://www.w3.org/2000/svg">
<path d="M34.7926 30.7026C34.7926 31.7499 34.8212 32.7132 34.7865 33.6739C34.7234 35.398 33.8648 36.6383 32.3138 37.3377C31.7598 37.5869 31.1021 37.7098 30.491 37.7124C23.7236 37.7384 16.9561 37.7367 10.1887 37.7237C7.70124 37.7193 5.9079 35.9122 5.90357 33.4333C5.89492 28.0637 5.89405 22.6941 5.90357 17.3244C5.9079 14.8621 7.69432 13.0731 10.1532 13.0705C16.9561 13.0618 23.7599 13.0618 30.5628 13.0705C32.9785 13.0739 34.7381 14.8127 34.7943 17.231C34.816 18.1605 34.7978 19.091 34.7978 20.14C35.4045 19.8111 35.9299 19.528 36.4544 19.2424C38.8155 17.9545 41.1757 16.6641 43.5386 15.3796C44.4283 14.8958 44.9987 15.2446 44.9987 16.2685C45.0004 22.3565 45.0004 28.4445 44.9987 34.5325C44.9987 35.598 44.4396 35.9407 43.5161 35.4379C40.8235 33.9717 38.1335 32.5003 35.4409 31.0315C35.2582 30.932 35.0696 30.8429 34.7909 30.7018L34.7926 30.7026ZM20.3377 36.0446C23.6751 36.0446 27.0117 36.048 30.3491 36.0437C32.1649 36.0411 33.1403 35.0648 33.1412 33.2516C33.1438 28.01 33.1438 22.7685 33.1412 17.527C33.1412 15.7051 32.1337 14.7054 30.2971 14.7045C23.6587 14.7019 17.0202 14.7019 10.3817 14.7045C8.58146 14.7045 7.56622 15.7025 7.56362 17.4967C7.55583 22.7564 7.55583 28.0152 7.56968 33.2749C7.57055 33.6973 7.61469 34.1534 7.77827 34.5343C8.23872 35.6084 9.11895 36.0515 10.2718 36.048C13.6265 36.0377 16.9821 36.0446 20.3368 36.0446H20.3377ZM43.3101 17.4473C43.1604 17.5019 43.0729 17.5218 42.9976 17.5625C40.3699 18.9966 37.7397 20.4264 35.1241 21.8822C34.9579 21.9748 34.8168 22.2691 34.8142 22.4708C34.7909 24.3913 34.8142 26.3136 34.7891 28.2342C34.7839 28.6548 34.9216 28.8721 35.2859 29.0668C37.1987 30.089 39.0968 31.1397 41.0009 32.1792C41.7478 32.5869 42.4982 32.9885 43.3092 33.4273V17.4465L43.3101 17.4473Z" fill="#E4022F"/>
</svg>
