<svg width="50" height="50" viewBox="0 0 50 50" fill="none" xmlns="http://www.w3.org/2000/svg">
<path d="M39.2739 24.12C40.5046 23.8812 41.611 23.986 42.6569 24.5468C45.5181 26.0789 46.1048 29.6986 43.8261 31.9958C40.7434 35.1033 37.6369 38.186 34.5218 41.2612C34.2981 41.4816 33.9416 41.6447 33.6271 41.6858C31.6995 41.9365 29.7676 42.1537 27.8356 42.3644C26.9583 42.4594 26.6622 42.091 26.781 41.2212C27.0079 39.5485 27.197 37.8716 27.411 36.1212C27.1463 36.1212 26.9366 36.1212 26.7259 36.1212C24.9788 36.1201 23.2316 36.1201 21.4833 36.1158C21.0187 36.1147 20.7313 35.8824 20.6816 35.4145C20.6373 34.992 20.9603 34.6571 21.4423 34.602C21.5849 34.5858 21.7297 34.5944 21.8745 34.5944C23.2975 34.5944 24.7292 34.4972 26.1414 34.6225C27.4704 34.7403 28.364 34.2659 29.2695 33.3248C31.9642 30.5231 34.7627 27.8207 37.5126 25.0719C37.625 24.9595 37.7212 24.7694 37.7212 24.6148C37.7331 21.409 37.7298 18.2031 37.7266 14.9972C37.7266 14.9119 37.6931 14.8265 37.6715 14.7239H7.50262C7.50262 14.9378 7.50262 15.1291 7.50262 15.3203C7.50262 21.2102 7.50262 27.1 7.50262 32.9899C7.50262 34.1665 7.92186 34.5933 9.08341 34.5955C10.8133 34.5977 12.5421 34.5955 14.272 34.5966C14.4341 34.5966 14.5983 34.5869 14.7572 34.6128C15.1872 34.6809 15.4606 34.9456 15.4487 35.3767C15.4357 35.8284 15.1667 36.1147 14.6858 36.1147C12.5961 36.1136 10.5054 36.1449 8.41781 36.0834C7.08338 36.0445 6.03097 34.8321 5.98991 33.435C5.97262 32.8408 5.98452 32.2465 5.98452 31.6522C5.98452 24.6462 5.98452 17.6391 5.98452 10.6331C5.98452 8.59092 7.0661 7.50393 9.12122 7.50285C18.1283 7.49961 27.1365 7.49853 36.1436 7.50285C38.1869 7.50285 39.2717 8.60389 39.2717 10.6515C39.2728 14.9022 39.2717 19.1529 39.2717 23.4036C39.2717 23.6165 39.2717 23.8293 39.2717 24.1232L39.2739 24.12ZM7.50479 13.1345H37.7179C37.7179 12.1091 37.7698 11.1171 37.6888 10.136C37.6618 9.80433 37.3549 9.41751 37.0653 9.21005C36.82 9.03501 36.4148 9.03825 36.081 9.03825C27.1106 9.03069 18.1402 9.03177 9.17093 9.03177C9.02723 9.03177 8.88244 9.02853 8.73873 9.03933C8.01155 9.0912 7.52748 9.55906 7.51019 10.2873C7.4875 11.222 7.50479 12.1566 7.50479 13.1345ZM29.5342 35.314C30.9637 36.7608 32.4213 38.2379 33.8832 39.7182C36.6342 36.9456 39.4046 34.1536 42.1026 31.4339C40.672 29.9817 39.2144 28.5036 37.7612 27.0287C35.0059 29.8034 32.2344 32.5944 29.5342 35.314ZM39.1118 25.9061C40.4938 27.3107 41.8833 28.7219 43.2718 30.1319C44.0551 29.0698 43.6975 27.4382 42.7099 26.4885C41.6359 25.4555 40.0464 25.2016 39.1118 25.9061ZM28.3986 40.7749C29.6779 40.6193 30.8675 40.4745 31.8821 40.3514C30.8826 39.3022 29.8583 38.226 28.8297 37.1466C28.6903 38.3189 28.552 39.4924 28.3986 40.7749Z" fill="#E4022F"/>
<path d="M22.6232 16.697C26.9161 16.6905 30.3942 20.1546 30.3953 24.4367C30.3964 28.709 26.9074 32.1861 22.6221 32.1839C18.3368 32.1818 14.8457 28.7025 14.8457 24.4356C14.8457 20.16 18.3206 16.7035 22.6232 16.697ZM16.3822 24.4496C16.3876 27.863 19.1958 30.6572 22.6232 30.6593C26.0506 30.6615 28.8458 27.8781 28.862 24.4496C28.8772 21.0039 26.0668 18.2162 22.5962 18.2346C19.1407 18.2529 16.3768 21.0169 16.3822 24.4496Z" fill="#E4022F"/>
<path d="M18.823 35.3368C18.8284 35.7604 18.5032 36.091 18.0796 36.0899C17.642 36.0899 17.3211 35.7798 17.3168 35.3552C17.3125 34.9403 17.6431 34.5988 18.0613 34.5869C18.4632 34.5751 18.8176 34.9241 18.823 35.3368Z" fill="#E4022F"/>
<path d="M10.7538 11.2534C10.7495 11.664 10.4134 12.0011 10.0061 12.0033C9.56849 12.0054 9.2238 11.6499 9.24433 11.2156C9.2627 10.8028 9.61063 10.4754 10.0169 10.4873C10.4199 10.4992 10.7592 10.8504 10.7538 11.2534Z" fill="#E4022F"/>
<path d="M13.6841 11.2426C13.6841 11.6543 13.3524 11.9957 12.9451 12.0033C12.5129 12.0108 12.1531 11.651 12.1671 11.2242C12.1812 10.8158 12.5302 10.4808 12.9354 10.4862C13.3395 10.4916 13.6831 10.8406 13.6841 11.2426Z" fill="#E4022F"/>
<path d="M21.3352 20.4604C21.6183 20.562 21.923 20.6268 22.1823 20.7727C23.4508 21.4847 24.7129 22.2097 25.9673 22.9477C27.2586 23.7073 27.2618 25.1552 25.9717 25.918C24.7194 26.6593 23.4573 27.3843 22.1888 28.0985C21.0089 28.763 19.7123 28.0855 19.6615 26.7306C19.6042 25.2038 19.6194 23.6727 19.6593 22.1449C19.6853 21.1562 20.3963 20.5069 21.3352 20.4604ZM21.2218 26.8937C22.6815 26.0509 24.0311 25.2719 25.4844 24.4323C23.9922 23.5755 22.6361 22.7975 21.2218 21.985V26.8937Z" fill="#E4022F"/>
</svg>
