<svg width="50" height="50" viewBox="0 0 50 50" fill="none" xmlns="http://www.w3.org/2000/svg">
<path d="M32.1849 41.5471C32.1849 42.9506 32.1849 44.3553 32.1849 45.7589C32.1849 46.6114 32.0044 46.7854 31.1335 46.7864C30.4485 46.7864 29.7645 46.7929 29.0795 46.7843C28.4776 46.7767 28.2702 46.5693 28.2669 45.9663C28.2604 44.6514 28.2648 43.3375 28.2648 42.0225C28.2648 41.8528 28.2648 41.6821 28.2648 41.5125L28.1513 41.4779C27.5797 42.2072 27.0081 42.9355 26.4365 43.6659C25.7374 44.5595 25.0632 45.4736 24.3252 46.3326C24.1221 46.5682 23.7385 46.7378 23.4208 46.767C22.7239 46.8318 22.0151 46.8221 21.316 46.7702C21.0308 46.7497 20.6277 46.6103 20.5186 46.4007C20.4127 46.1976 20.5337 45.7718 20.698 45.5503C23.0891 42.3261 25.5095 39.1246 27.9006 35.9003C28.1059 35.6237 28.2431 35.2261 28.2485 34.8814C28.282 32.9732 28.2648 31.064 28.2648 29.1547V28.4945H26.9865V24.555H28.2248V19.3253C27.7169 19.3253 27.2188 19.3037 26.7229 19.3383C26.5705 19.3491 26.4063 19.4863 26.2853 19.6052C25.5905 20.2859 24.913 20.9839 24.215 21.6603C24.0854 21.7867 23.8887 21.9186 23.7212 21.9207C22.2096 21.9412 20.698 21.9326 19.0923 21.9326C19.0923 21.1946 19.0794 20.4836 19.0977 19.7727C19.1064 19.441 19.047 19.2843 18.6601 19.2054C16.6471 18.7916 15.0404 17.0779 15.1636 14.4404C15.2641 12.3064 16.7066 10.6327 18.8903 10.2545C18.9411 10.2458 18.9886 10.2221 19.0848 10.1896V7.55429C19.9535 7.55429 20.7758 7.54889 21.598 7.55537C22.3879 7.56185 23.2631 7.37492 23.9438 7.6537C24.6062 7.92598 25.1194 8.64128 25.61 9.23448C26.2107 9.96274 26.8979 10.2048 27.8466 10.1788C30.4928 10.1086 33.1422 10.1529 35.7905 10.1551C37.6328 10.1562 38.7197 11.2302 38.7316 13.0627C38.7381 14.1972 38.7414 15.3318 38.7316 16.4663C38.7154 18.2578 37.6479 19.3167 35.8607 19.321C34.6581 19.3243 33.4555 19.321 32.2205 19.321V24.6393C32.6711 24.5107 33.099 24.4664 33.4436 24.2751C34.5944 23.6333 35.9926 23.844 36.8224 24.8392C37.6414 25.8224 37.6328 27.2422 36.8019 28.2125C35.9612 29.1947 34.5501 29.3913 33.4134 28.7387C33.0838 28.5496 32.6678 28.5129 32.1881 28.3757V29.1137C32.1881 31.0229 32.2011 32.9322 32.1784 34.8404C32.173 35.2834 32.3005 35.6216 32.563 35.9695C34.9488 39.13 37.327 42.2959 39.6846 45.4769C39.8629 45.7178 39.9926 46.1079 39.9364 46.3856C39.85 46.8113 39.4091 46.7897 39.0407 46.7864C38.3924 46.781 37.743 46.7648 37.0958 46.7918C36.6376 46.8113 36.3232 46.6546 36.0423 46.2851C34.9509 44.8534 33.8337 43.4423 32.724 42.0246C32.5836 41.8453 32.4377 41.6692 32.294 41.492C32.2594 41.5092 32.2237 41.5265 32.1892 41.5449L32.1849 41.5471ZM26.9919 11.4863V17.9823C27.1302 17.9952 27.234 18.0136 27.3377 18.0147C30.2183 18.0158 33.0989 18.0222 35.9796 18.0125C36.9013 18.0093 37.3972 17.496 37.4069 16.5549C37.4188 15.4031 37.4123 14.2513 37.4091 13.0995C37.4058 11.9466 36.9196 11.4636 35.7635 11.4625C33.0266 11.4603 30.2907 11.4625 27.5538 11.4625C27.3777 11.4625 27.2026 11.4765 26.9919 11.4863ZM20.417 20.5506C22.1642 20.7786 23.8163 20.8694 24.8903 19.1503C24.993 18.9871 25.2015 18.8888 25.2977 18.7235C25.4403 18.4761 25.6186 18.1962 25.6218 17.9282C25.6478 15.805 25.637 13.6808 25.6359 11.5576C25.6359 11.4322 25.6791 11.2561 25.6132 11.188C24.859 10.4036 24.0875 9.63643 23.3214 8.86386H20.4181V20.5517L20.417 20.5506ZM19.0632 11.6073C17.6012 11.7013 16.4851 13.0044 16.4797 14.6035C16.4743 16.4382 17.5213 17.7835 19.0632 17.8893V11.6073ZM30.8418 45.4704V36.3714H29.6165V45.4704H30.8418ZM29.61 28.5161V34.9711H30.8396V28.5161H29.61ZM28.1988 37.708C26.2366 40.325 24.336 42.8599 22.416 45.4207C23.0589 45.6011 23.4371 45.4207 23.8012 44.9366C25.0535 43.2683 26.3252 41.613 27.6597 40.0117C28.2226 39.3363 28.3696 38.6491 28.1988 37.708ZM38.025 45.4282C36.0974 42.8588 34.1989 40.3293 32.3015 37.7999C32.1956 38.553 32.1092 39.2121 32.6635 39.8701C34.0401 41.5038 35.3367 43.2056 36.6171 44.9161C36.9801 45.4002 37.3583 45.5936 38.025 45.4282ZM30.845 24.5139V19.3621H29.6111V24.5139H30.845ZM36.0952 26.5399C36.1071 25.8235 35.5333 25.2271 34.818 25.2109C34.1081 25.1947 33.5063 25.7771 33.4933 26.4934C33.4804 27.2152 34.0455 27.8008 34.7716 27.816C35.4901 27.8311 36.0833 27.2584 36.0952 26.5399ZM32.1416 27.1363V25.8992H28.2972V27.1363H32.1416Z" fill="#E4022F"/>
<path d="M11.25 15.362V14.1292H13.8184V15.362H11.25Z" fill="#E4022F"/>
<path d="M15.5731 10.3387C15.2749 10.6445 14.9929 10.9352 14.7022 11.2334C14.2927 10.8217 13.8778 10.4057 13.4261 9.953C13.7298 9.67099 14.028 9.39546 14.3359 9.10913C14.7487 9.51972 15.1636 9.93139 15.5731 10.3387Z" fill="#E4022F"/>
<path d="M14.3349 20.3324C14.0129 20.0558 13.7287 19.8126 13.4575 19.5803C13.9102 19.1319 14.3251 18.7202 14.753 18.2967C14.9929 18.5463 15.2738 18.8391 15.5418 19.119C15.1387 19.5241 14.7184 19.9455 14.3349 20.3324Z" fill="#E4022F"/>
<path d="M36.0747 12.8088V14.0416H30.9066V12.8088H36.0747Z" fill="#E4022F"/>
<path d="M29.5408 14.0546H28.3036V12.8045H29.5408V14.0546Z" fill="#E4022F"/>
</svg>
