<svg width="30" height="31" viewBox="0 0 30 31" fill="none" xmlns="http://www.w3.org/2000/svg">
<path fill-rule="evenodd" clip-rule="evenodd" d="M25.4699 0.5H4.53015C2.02822 0.5 0 2.52842 0 5.0306V25.9694C0 28.4716 2.02822 30.5 4.53015 30.5H25.4699C27.9718 30.5 30 28.4716 30 25.9694V5.0306C30 2.52842 27.9718 0.5 25.4699 0.5ZM16.9575 15.4769H20.5168L20.9879 11.2554H16.9578V8.76864C16.9578 7.83589 17.6263 7.61688 18.1017 7.61688H21V3.51541L17.0055 3.5C12.5721 3.5 11.5648 6.56184 11.5648 8.51717V11.2515H9V15.4769H11.5648V27.5H16.9575V15.4769Z" fill="white"/>
</svg>
