<svg width="30" height="31" viewBox="0 0 30 31" fill="none" xmlns="http://www.w3.org/2000/svg">
<path fill-rule="evenodd" clip-rule="evenodd" d="M4.53015 0.5H25.4699C27.9718 0.5 30 2.52842 30 5.0306V25.9694C30 28.4716 27.9718 30.5 25.4699 30.5H4.53015C2.02822 30.5 0 28.4716 0 25.9694V5.0306C0 2.52842 2.02822 0.5 4.53015 0.5ZM9.5988 25.6784V12.0445H5.0676V25.6784H9.5988ZM7.3338 10.1819C8.9139 10.1819 9.89745 9.13493 9.89745 7.82663C9.868 6.48881 8.91396 5.47095 7.3638 5.47095C5.81385 5.47095 4.80029 6.48883 4.80029 7.82663C4.80029 9.135 5.78359 10.1819 7.30425 10.1819H7.3337H7.3338ZM16.6378 25.6784H12.1066L12.1067 25.6782C12.1067 25.6782 12.1661 13.3235 12.1067 12.0442H16.6379V13.9746C17.2401 13.0456 18.3179 11.7244 20.7215 11.7244C23.7028 11.7244 25.9382 13.6729 25.9382 17.8607V25.6783H21.4073V18.3844C21.4073 16.5516 20.7514 15.3013 19.1117 15.3013C17.86 15.3013 17.1144 16.1445 16.7869 16.9587C16.6672 17.25 16.6378 17.657 16.6378 18.0645V25.6784Z" fill="white"/>
</svg>
