<svg width="24" height="25" viewBox="0 0 24 25" fill="none" xmlns="http://www.w3.org/2000/svg">
<path d="M21.2751 19.9462C21.2751 20.7294 21.2765 21.4683 21.2751 22.2071C21.2724 23.6172 20.3618 24.4992 18.9024 24.4992C14.3061 24.5006 9.70982 24.4999 5.11422 24.4992C3.63229 24.4992 2.73055 23.6225 2.72918 22.1859C2.72849 21.4577 2.72918 20.7288 2.72918 19.9455C2.5465 19.9455 2.38093 19.9481 2.21536 19.9455C0.979056 19.9236 0.0280512 19.0602 0.0177886 17.8615C-0.00547341 15.0333 -0.00684176 12.2051 0.0191569 9.37687C0.0301037 8.19404 0.97153 7.33723 2.19347 7.30145C2.36178 7.29681 2.53077 7.30079 2.72849 7.30079C2.72849 7.02049 2.72849 6.77994 2.72849 6.5394C2.72849 5.2797 2.72644 4.02067 2.72849 2.76097C2.73191 1.39392 3.65282 0.502651 5.06632 0.501326C8.21422 0.500001 11.3621 0.502651 14.5093 0.500001C15.6177 0.499338 16.5516 0.883013 17.3138 1.66295C18.1601 2.52904 18.9879 3.41368 19.8637 4.25127C20.7381 5.08753 21.3128 6.03247 21.2731 7.29946C21.4407 7.29946 21.5858 7.29748 21.7301 7.29946C23.0601 7.31934 23.9858 8.2073 23.992 9.49748C24.0023 11.4748 23.9947 13.4528 23.9947 15.4302C23.9947 16.1704 23.9763 16.9112 23.9988 17.6507C24.0406 19.0257 22.9521 20.0376 21.6289 19.9468C21.5283 19.9402 21.427 19.9462 21.2745 19.9462H21.2751ZM12.0052 18.5354C15.2085 18.5354 18.4125 18.5354 21.6159 18.5354C22.2905 18.5354 22.519 18.3147 22.5197 17.6633C22.5197 14.9683 22.5203 12.274 22.5197 9.57898C22.5197 8.93025 22.2925 8.71489 21.609 8.71489C15.2017 8.71489 8.79508 8.71489 2.38777 8.71489C1.71112 8.71489 1.48466 8.9329 1.48466 9.58561C1.48466 12.2806 1.48466 14.9749 1.48466 17.67C1.48466 18.3187 1.71249 18.5347 2.3953 18.5347C5.59861 18.5347 8.80261 18.5347 12.0059 18.5347L12.0052 18.5354ZM4.19605 7.27495H19.8131C19.8391 6.62621 19.6393 6.0835 19.1932 5.62826C18.2046 4.61904 17.2118 3.61314 16.2239 2.60259C15.7484 2.11554 15.16 1.89819 14.4785 1.89819C11.3539 1.89687 8.22858 1.89687 5.10395 1.89819C4.47177 1.89819 4.18168 2.17651 4.18032 2.78482C4.17826 4.17705 4.17963 5.56928 4.18032 6.96085C4.18032 7.05826 4.18921 7.15567 4.19468 7.27561L4.19605 7.27495ZM4.19126 19.9687C4.19126 20.8169 4.16937 21.6425 4.20084 22.4662C4.21589 22.8618 4.56482 23.101 5.02254 23.101C9.67425 23.103 14.3253 23.1037 18.977 23.101C19.5168 23.101 19.8158 22.8022 19.8213 22.2721C19.8267 21.6869 19.8226 21.1012 19.8226 20.516C19.8226 20.3345 19.8226 20.1522 19.8226 19.9687H4.19126Z" fill="white"/>
<path d="M11.3573 10.2635C11.8424 10.3132 12.3425 10.3052 12.8091 10.4239C13.6842 10.6465 14.2685 11.2303 14.5695 12.0474C15.0484 13.3448 15.0047 14.6118 14.1727 15.7761C13.652 16.505 12.9022 16.8615 11.9868 16.8781C11.5078 16.8867 11.0289 16.8874 10.55 16.8847C10.0471 16.8814 9.73172 16.623 9.72761 16.1478C9.71119 14.4356 9.70914 12.7233 9.71803 11.011C9.72009 10.5855 10.0273 10.3205 10.4645 10.3092C10.7607 10.3019 11.0577 10.3079 11.3539 10.3079C11.3553 10.2927 11.3573 10.2781 11.3587 10.2628L11.3573 10.2635ZM11.2034 11.7094V15.4726C11.4339 15.4726 11.6358 15.4746 11.8376 15.4726C12.5526 15.4653 12.9658 15.2069 13.2203 14.5595C13.5043 13.8372 13.4769 13.1102 13.1451 12.4072C12.9453 11.9844 12.5861 11.7439 12.1038 11.7127C11.8102 11.6942 11.514 11.7094 11.2034 11.7094Z" fill="white"/>
<path d="M4.98354 14.698C4.98354 15.2619 4.98627 15.7469 4.98285 16.232C4.97943 16.727 4.67634 17.0563 4.23984 17.049C3.81839 17.0418 3.52351 16.7224 3.52145 16.2433C3.51256 14.5422 3.50709 12.8419 3.5064 11.1409C3.5064 10.5657 3.77391 10.3105 4.3582 10.3072C4.8597 10.3046 5.36189 10.2999 5.8627 10.3099C7.08806 10.3344 8.06507 11.2833 8.09312 12.4675C8.12117 13.6271 7.1859 14.6165 5.97559 14.694C5.66019 14.7139 5.34205 14.6973 4.98354 14.6973V14.698ZM4.99312 13.3024C5.301 13.3024 5.5733 13.3157 5.84286 13.2991C6.27047 13.2733 6.60709 12.9539 6.63651 12.5702C6.66729 12.1686 6.37378 11.7836 5.93796 11.7273C5.63008 11.6875 5.31263 11.7193 4.99312 11.7193V13.3024Z" fill="white"/>
<path d="M18.1888 11.6431V12.8432C18.6267 12.8432 19.0454 12.8352 19.4641 12.8459C19.8021 12.8545 20.0641 13.0056 20.1654 13.3276C20.2537 13.6086 20.2133 13.8928 19.9485 14.0724C19.8089 14.1672 19.6181 14.2222 19.4463 14.2348C19.1063 14.2599 18.7628 14.2513 18.4214 14.2401C18.2244 14.2334 18.1642 14.309 18.1662 14.4912C18.1738 15.0319 18.1717 15.5733 18.1676 16.114C18.1635 16.6322 17.8953 16.9364 17.4485 16.943C16.986 16.9496 16.6973 16.6349 16.6966 16.1074C16.6946 14.4296 16.6939 12.7518 16.6966 11.0739C16.698 10.5239 16.9936 10.2463 17.5662 10.2443C18.2271 10.2423 18.888 10.2416 19.549 10.2443C20.0655 10.2463 20.3891 10.5299 20.3802 10.9633C20.3713 11.3794 20.0546 11.6405 19.5476 11.6431C19.1056 11.6458 18.663 11.6431 18.1881 11.6431H18.1888Z" fill="white"/>
</svg>
