<svg width="350" height="170" viewBox="0 0 350 170" fill="none" xmlns="http://www.w3.org/2000/svg">
<path d="M260.189 78.7025C256.235 79.6141 245.794 80.1206 245.794 80.1206L244.51 84.2397C244.51 84.2397 249.68 83.8007 253.465 84.1721C253.465 84.1721 254.681 84.0708 254.816 85.5226C254.884 87.0082 254.715 88.5613 254.715 88.5613C254.715 88.5613 254.614 89.4729 253.363 89.7093C251.91 89.9456 242.111 90.3845 242.111 90.3845L240.523 95.7191C240.523 95.7191 239.949 96.9345 241.266 96.5969C242.483 96.2593 252.755 94.301 254.107 94.5711C255.526 94.9088 257.148 96.867 256.675 98.6227C256.134 100.75 245.862 107.3 239.645 106.861C239.645 106.861 236.367 107.063 233.63 102.64C230.994 98.4201 234.542 90.4858 234.542 90.4858C234.542 90.4858 232.954 86.7719 234.137 85.4214C234.137 85.4214 234.813 84.8474 236.84 84.6786L239.374 79.4791C239.374 79.4791 236.502 79.6479 234.813 77.5546C233.258 75.5288 233.123 74.651 234.339 74.1108C235.623 73.4355 247.518 71.3084 255.695 71.5785C255.695 71.5785 258.567 71.2409 261.101 76.2041C261.101 76.2041 262.25 78.2298 260.223 78.7025M229.372 98.6902C228.359 101.155 225.554 103.755 222.175 102.168C218.728 100.547 213.288 89.4729 213.288 89.4729C213.288 89.4729 211.261 85.3538 210.855 85.4889C210.855 85.4889 210.416 84.6786 210.18 89.2028C209.842 93.6933 210.247 102.438 208.389 103.822C206.699 105.173 204.672 104.599 203.523 103.012C202.577 101.425 202.171 97.6098 202.712 90.9585C203.32 84.3072 204.841 77.2169 206.767 75.0224C208.794 72.794 210.416 74.4146 211.024 75.0224C211.024 75.0224 213.626 77.3858 218.019 84.3747L218.762 85.6577C218.762 85.6577 222.749 92.309 223.155 92.2752C223.155 92.2752 223.493 92.6129 223.763 92.3428C224.169 92.2415 224.033 90.0806 224.033 90.0806C224.033 90.0806 223.29 82.8891 219.573 70.7345C219.573 70.7345 219.033 69.1814 219.404 67.6958C219.742 66.3453 221.195 67.0205 221.195 67.0205C221.195 67.0205 226.804 69.7216 229.541 78.8376C232.244 87.9536 230.42 96.2255 229.406 98.6902M201.867 75.2925C201.327 76.2378 201.09 77.5546 198.758 77.926C198.758 77.926 176.119 79.5128 175.004 81.0997C175.004 81.0997 174.261 82.0451 175.477 82.2814C176.761 82.5515 181.897 83.2268 184.33 83.3618C186.966 83.3618 195.819 83.4293 199.063 87.4134C199.063 87.4134 200.921 89.3041 200.853 93.592C200.786 97.9812 200.009 99.5343 198.285 101.121C196.495 102.607 181.154 109.494 171.253 98.9603C171.253 98.9603 166.725 93.8959 172.841 90.0469C172.841 90.0469 177.234 87.3458 188.486 90.4858C188.486 90.4858 191.865 91.7013 191.73 92.9505C191.527 94.301 188.926 95.6515 185.141 95.584C181.492 95.4827 178.788 93.727 179.329 94.0309C179.836 94.1997 175.376 91.8701 173.99 93.4569C172.639 94.9425 172.977 95.8204 174.328 96.732C177.707 98.6902 190.987 97.9812 194.94 93.5582C194.94 93.5582 196.528 91.7688 194.129 90.317C191.764 88.9665 184.871 88.1224 182.201 88.0211C179.667 87.8861 170.172 88.0211 168.753 85.5564C168.753 85.5564 167.401 83.8007 168.888 79.0064C170.442 73.9419 181.492 71.9837 186.29 71.5785C186.29 71.5785 199.468 71.0383 201.935 73.7394C201.935 73.7394 202.273 74.3471 201.867 75.2587M164.495 104.97C162.907 106.152 159.528 105.645 158.548 104.295C157.602 103.113 157.264 98.4539 157.433 91.1273C157.67 83.6319 157.771 74.4484 159.461 72.9628C161.15 71.511 162.164 72.794 162.84 73.7731C163.515 74.786 164.394 75.9002 164.529 78.2298C164.732 80.5932 165.306 92.7479 165.306 92.7479C165.306 92.7479 166.05 103.822 164.529 104.97M167.874 65.4674C163.211 67.0543 160.035 66.5478 157.332 65.3661C156.149 67.4932 155.44 68.1347 154.561 68.2698C153.209 68.4048 152.027 66.244 151.858 65.5687C151.587 65.0623 150.945 64.1507 151.723 62.0911C149.087 59.7277 148.884 56.554 149.357 54.4269C149.966 51.9285 154.426 42.5424 167.942 41.4282C167.942 41.4282 174.565 40.9555 175.714 44.4669H175.916C175.916 44.4669 182.336 44.4669 182.201 50.2066C182.201 55.9463 175.105 63.104 167.874 65.5687M173.889 49.1262C169.631 49.8014 163.076 55.4736 159.934 60.1666C164.766 61.0445 173.213 60.7069 176.998 53.0764C176.998 53.0764 178.788 48.2821 173.889 49.1262ZM155.203 52.8401C153.851 55.0347 153.784 56.3514 154.426 57.2293C156.014 54.8659 158.819 51.1519 163.042 48.2483C159.798 48.5859 157.061 49.9365 155.203 52.8401ZM270.326 104.734C267.217 112.364 264.582 120.096 263.061 131.677C263.061 131.677 262.723 133.939 260.865 133.196C259.006 132.521 255.965 129.482 255.289 125.194C254.614 119.589 257.114 110.136 262.216 99.2642C260.73 96.9008 259.682 93.3894 260.527 88.46C260.527 88.46 261.878 79.344 271.002 71.1059C271.002 71.1059 272.083 70.1943 272.691 70.4981C273.435 70.8357 273.131 73.7394 272.522 75.2249C271.982 76.643 267.927 83.6657 267.927 83.6657C267.927 83.6657 265.393 88.46 266.102 92.2077C270.9 84.8474 281.815 69.9241 288.573 74.651C292.864 77.6896 292.864 87.4809 289.654 93.1531C287.12 97.6436 279.956 106.928 270.394 104.768M284.45 81.8087C281.95 84.5098 277.489 89.6417 273.975 96.5969C277.692 96.1917 281.308 94.1322 282.423 93.0855C284.214 91.4987 288.336 87.2108 287.694 81.5386C287.694 81.5386 287.289 78.5675 284.45 81.8087ZM133.07 108.718C121.109 112.364 109.823 110.676 103.673 109.055C103.504 111.554 103.234 112.601 102.828 113.006C102.355 113.546 98.4355 115.774 96.273 112.601C95.3269 111.081 94.8538 108.346 94.5835 105.848C80.7295 99.568 74.3094 90.317 74.1067 89.9794C73.7688 89.6417 70.6263 86.3667 73.7688 82.3152C76.7085 78.6688 86.4401 74.9886 95.1579 73.5368C95.4958 66.1089 96.3068 60.3692 97.3543 57.837C98.6045 54.7983 100.193 57.4994 101.612 59.5252C102.761 61.0445 103.47 67.5607 103.538 72.7602C109.215 72.4901 112.661 72.8953 118.98 74.1108C127.292 75.5288 132.834 79.7829 132.395 84.5773C131.989 89.3041 127.664 91.2623 125.975 91.3974C124.285 91.5325 121.582 90.2832 121.582 90.2832C119.69 89.4054 121.413 88.5951 123.609 87.6497C126.042 86.468 125.501 85.2863 125.501 85.2863C124.623 82.5853 113.844 80.7958 103.132 80.7958C103.132 86.7043 103.369 96.4956 103.538 102.202C111.039 103.62 116.648 103.316 116.648 103.316C116.648 103.316 144.018 102.539 144.796 85.0837C145.64 67.5945 117.426 50.8481 96.6447 45.581C75.8975 40.1452 64.1386 43.9942 63.1249 44.5006C62.0098 45.0408 63.0235 45.2434 63.0235 45.2434C63.0235 45.2434 64.1386 45.4122 66.166 46.0875C68.1934 46.7627 66.5715 47.7756 66.5715 47.7756C63.0235 48.9911 59.07 48.2821 58.2929 46.6615C57.5157 45.0746 58.7997 43.6228 60.3203 41.4957C61.7395 39.3011 63.3614 39.3687 63.3614 39.3687C89.0419 30.4215 120.399 46.4589 120.399 46.4589C149.729 61.2471 154.73 78.635 154.189 85.3876C153.716 92.0389 151.148 103.282 133.07 108.752M76.6409 84.5773C73.735 85.9278 75.7624 88.0886 75.7624 88.0886C81.2364 93.9296 87.9268 97.6098 94.3469 99.9057C95.0903 89.7768 95.0227 86.1641 95.0227 81.0659C85.0884 81.7412 79.3441 83.3618 76.6409 84.5773Z" fill="white"/>
</svg>
