<svg width="350" height="170" viewBox="0 0 350 170" fill="none" xmlns="http://www.w3.org/2000/svg">
<path d="M182.591 52.744L175.076 25.7147L167.755 52.744L141.252 52.548L162.219 67.5443L154.107 93.3883L174.681 77.6057L197.629 93.9857L188.13 68.5313L209.89 52.7463H182.591V52.744ZM192.004 86.2973L174.856 74.052L159.477 85.8493L165.54 66.5293L149.864 55.327L169.68 55.4717L175.156 35.2673L180.765 55.4717H201.175L184.905 67.269L192.004 86.2973Z" fill="white"/>
<path d="M184.898 145.709L186.769 145.653V141.383H184.898V145.709Z" fill="white"/>
<path d="M230.242 125.161H119.756C115.471 125.161 112 129.366 112 134.544V159.604C112 164.795 115.469 169 119.756 169H230.242C234.529 169 237.989 164.795 237.989 159.604V134.544C237.989 129.366 234.529 125.161 230.242 125.161ZM235.392 159.072C235.392 162.705 232.441 165.647 228.799 165.649H121.623C117.981 165.649 115.027 162.705 115.027 159.072V134.873C115.027 131.235 117.979 128.288 121.623 128.288H228.796C232.436 128.288 235.39 131.235 235.39 134.873V159.072H235.392Z" fill="white"/>
<path d="M122.158 131.499C119.971 131.499 118.198 133.267 118.198 135.447V158.801C118.198 160.983 119.974 162.742 122.158 162.742H227.835C230.013 162.737 231.774 160.973 231.769 158.801V135.447C231.769 133.267 230.01 131.499 227.819 131.499H122.158ZM139.299 154.48L136.527 157.371H131.409L128.516 154.601V137.547L133.035 137.596V153.584H134.78V137.537H139.299V154.48ZM146.168 157.371H141.771L141.829 153.642H146.168V157.371ZM159.36 154.48L156.467 157.371H151.529L148.697 154.543V150.998H153.155V153.521H154.963V149.274H151.635L148.788 146.432V140.274L151.471 137.598H156.17L159.183 140.361V143.905H154.905L154.844 141.327H153.22V145.475H156.411L159.363 148.415V154.482L159.36 154.48ZM166.048 157.308H161.709L161.65 153.586H166.048V157.308ZM174.842 157.308L174.482 153.707H172.01L171.769 157.308H167.311L169.961 137.54H176.407L179.237 157.308H174.84H174.842ZM190.932 145.653L188.881 147.512L190.932 149.437V157.429L186.83 157.371L186.774 149.437H184.902V157.371L180.568 157.429L180.507 137.598H188.037L190.935 140.363V145.655L190.932 145.653ZM203.458 157.371V144.806L201.528 157.371H199.783L197.861 144.806V157.371H193.823L193.88 137.659H199.056L200.686 147.092L202.253 137.596H207.439L207.56 157.371H203.458ZM217.221 148.952V157.333H212.762L212.669 148.952L209.029 137.565H213.422L214.989 144.477L216.591 137.565H220.928L217.218 148.952H217.221Z" fill="white"/>
<path d="M230.482 1.00467H119.826V1C115.676 1 112.306 4.367 112.306 8.52967V113.698C112.306 117.853 115.676 121.227 119.826 121.227H230.482C234.634 121.227 238 117.853 238 113.698V8.52967C238 4.37167 234.632 1.00467 230.482 1.00467ZM235.109 110.977C235.109 114.615 232.162 117.566 228.506 117.566H121.505C117.859 117.566 114.902 114.615 114.902 110.977V10.506C114.902 6.866 117.852 3.91667 121.505 3.91667H228.506C232.162 3.91667 235.109 6.86367 235.109 10.506V110.977Z" fill="white"/>
<path d="M224.616 7.99972H125.271C121.625 7.99972 118.668 10.949 118.668 14.5867V107.218C118.668 110.855 121.627 113.807 125.271 113.807H224.616C228.268 113.807 231.217 110.855 231.217 107.218V14.5867C231.217 10.949 228.268 7.99972 224.616 7.99972ZM204.948 104.24L175.076 83.329L146.196 104.042L157.281 69.3174L127.21 48.6044L164.396 48.4084L175.277 13.6814L186.542 48.6044H222.549L193.669 69.3174L204.948 104.243V104.24Z" fill="white"/>
<path d="M172.37 149.92H174.178L173.154 141.8L172.37 149.92Z" fill="white"/>
</svg>
