<svg width="253" height="61" viewBox="0 0 253 61" fill="none" xmlns="http://www.w3.org/2000/svg">
<g clip-path="url(#clip0_175_1337)">
<path d="M239.005 18.7471L232.545 34.3332H225.009L239.005 0.5L253 34.3332H245.464L239.005 18.7471Z" fill="white"/>
<path fill-rule="evenodd" clip-rule="evenodd" d="M58.7062 18.4937C58.7062 27.4272 65.9257 34.65 74.8551 34.65C83.7212 34.65 91.004 27.4272 91.004 18.4937C91.004 9.56022 83.7845 2.3374 74.8551 2.3374C65.9257 2.3374 58.7062 9.56022 58.7062 18.4937ZM65.6724 18.4937C65.6724 13.4251 69.7888 9.30679 74.8551 9.30679C79.9214 9.30679 84.0378 13.4251 84.0378 18.4937C84.0378 23.5624 79.9214 27.6806 74.8551 27.6806C69.7888 27.6806 65.6724 23.5624 65.6724 18.4937Z" fill="white"/>
<path d="M15.8323 34.3331H28.1815L28.0548 27.3637H15.8323C10.9559 27.3637 6.96621 23.3721 6.96621 18.4936C6.96621 13.615 10.9559 9.62344 15.8323 9.62344H28.1815V2.65405H15.8323C7.09287 2.65405 0 9.75016 0 18.4936C0 27.237 7.09287 34.3331 15.8323 34.3331Z" fill="white"/>
<path d="M172.255 9.62344H180.235V2.65405H152.623V9.62344H165.289V34.3331H172.255V9.62344Z" fill="white"/>
<path d="M221.588 2.65405H214.622V34.3331H221.588V2.65405Z" fill="white"/>
<path d="M54.3998 27.3637H40.4674V21.9783H51.8033V15.0089H40.4674V9.62344H53.3232V2.65405H33.5012V34.3331H61.366L54.3998 27.3637Z" fill="white"/>
<path d="M129.382 34.3331H157.247L150.28 27.3637H136.348V21.9783H147.684V15.0089H136.348V9.62344H149.204V2.65405H129.382V34.3331Z" fill="white"/>
<path d="M211.013 12.2845C211.013 17.6066 206.706 21.9149 201.387 21.9149H196.786L203.857 29.5179V39.4017L189.291 24.8927V14.9455H201.45C202.907 14.9455 204.11 13.7417 204.11 12.2845C204.11 10.8272 202.907 9.62344 201.45 9.62344H188.974L182.008 2.65405H201.45C206.643 2.65405 211.013 6.9624 211.013 12.2845Z" fill="white"/>
<path d="M92.3973 1.19702V11.0809L108.23 26.9204L117.096 18.0503V34.3333H124.062V1.19702L108.23 17.0365L92.3973 1.19702Z" fill="white"/>
<path d="M15.8323 12.158V21.9785L28.1815 34.3333V24.5128L15.8323 12.158Z" fill="#E4022F"/>
<path d="M36.8246 60.3101H39.2153V53.1189L42.3026 57.8074H42.366L45.4849 53.0714V60.3101H47.9073V49.2224H45.2791L42.366 53.9109L39.4528 49.2224H36.8246V60.3101Z" fill="white"/>
<path d="M53.736 60.3101H62.1746V58.1401H56.1584V55.8116H61.383V53.6416H56.1584V51.3924H62.0955V49.2224H53.736V60.3101Z" fill="white"/>
<path d="M67.5089 60.3101H71.8311C75.3142 60.3101 77.7207 57.8866 77.7207 54.7662C77.7207 51.6142 75.3142 49.2224 71.8311 49.2224H67.5089V60.3101ZM69.9471 58.1084V51.4241H71.8311C73.826 51.4241 75.1717 52.8021 75.1717 54.7662C75.1717 56.762 73.826 58.1084 71.8311 58.1084H69.9471Z" fill="white"/>
<path d="M83.1709 60.3101H85.6091V49.2224H83.1709V60.3101Z" fill="white"/>
<path d="M90.5949 60.3099H93.0806L94.0938 57.8231H98.7802L99.7935 60.3099H102.342L97.5928 49.1431H95.3446L90.5949 60.3099ZM94.9646 55.6689L96.437 52.0734L97.9094 55.6689H94.9646Z" fill="white"/>
<path d="M120.325 60.5C122.463 60.5 123.729 59.8348 124.869 58.6151L123.318 56.952C122.447 57.744 121.671 58.2508 120.405 58.2508C118.505 58.2508 117.191 56.6669 117.191 54.7661C117.191 52.8337 118.536 51.2814 120.405 51.2814C121.671 51.2814 122.399 51.7408 123.254 52.5169L124.711 50.8379C123.682 49.8242 122.51 49.0322 120.42 49.0322C117.017 49.0322 114.642 51.6141 114.642 54.7661C114.642 57.9816 117.064 60.5 120.325 60.5Z" fill="white"/>
<path d="M135.061 60.5C138.481 60.5 140.967 57.9182 140.967 54.7661C140.967 51.5824 138.513 49.0322 135.093 49.0322C131.673 49.0322 129.188 51.6141 129.188 54.7661C129.188 57.9499 131.642 60.5 135.061 60.5ZM135.093 58.2508C133.13 58.2508 131.737 56.6669 131.737 54.7661C131.737 52.8337 133.098 51.2814 135.061 51.2814C137.025 51.2814 138.418 52.8654 138.418 54.7661C138.418 56.6986 137.056 58.2508 135.093 58.2508Z" fill="white"/>
<path d="M146.296 60.3101H148.687V53.1189L151.774 57.8074H151.837L154.956 53.0714V60.3101H157.379V49.2224H154.751L151.837 53.9109L148.924 49.2224H146.296V60.3101Z" fill="white"/>
<path d="M163.208 60.3101H165.646V56.9838H167.498C169.984 56.9838 171.979 55.6533 171.979 53.0873C171.979 50.7905 170.38 49.2224 167.736 49.2224H163.208V60.3101ZM165.646 54.8138V51.4241H167.53C168.749 51.4241 169.509 52.0102 169.509 53.1031C169.509 54.0851 168.797 54.8138 167.578 54.8138H165.646Z" fill="white"/>
<path d="M174.887 60.3099H177.372L178.386 57.8231H183.072L184.085 60.3099H186.634L181.885 49.1431H179.636L174.887 60.3099ZM179.256 55.6689L180.729 52.0734L182.201 55.6689H179.256Z" fill="white"/>
<path d="M191.511 60.3101H193.917V53.2615L199.285 60.3101H201.359V49.2224H198.952V56.0492L193.759 49.2224H191.511V60.3101Z" fill="white"/>
<path d="M210.305 60.3101H212.743V55.8908L217.002 49.2224H214.231L211.54 53.6733L208.896 49.2224H206.046L210.305 55.9384V60.3101Z" fill="white"/>
</g>
<defs>
<clipPath id="clip0_175_1337">
<rect width="253" height="60" fill="white" transform="translate(0 0.5)"/>
</clipPath>
</defs>
</svg>
