<svg width="107" height="115" viewBox="0 0 107 115" fill="none" xmlns="http://www.w3.org/2000/svg">
<path d="M9.63261e-06 64.355L107 114.999L107 50.643L1.52588e-05 -0.000985917L9.63261e-06 64.355Z" fill="#E4022F"/>
<path d="M51.4981 41C60.1569 41.0147 67.1707 48.0553 67.1577 56.7192C67.1447 65.3754 60.0981 72.3944 51.4376 72.3788C42.7616 72.3633 35.7512 65.3063 35.7789 56.6155C35.8057 47.9862 42.8532 40.9853 51.4981 41ZM51.4877 42.5689C43.7141 42.5611 37.3651 48.8739 37.3478 56.6268C37.3305 64.4488 43.6467 70.803 51.4488 70.8108C59.2397 70.8186 65.5836 64.4929 65.5897 56.7089C65.5957 48.9137 59.2752 42.5767 51.4877 42.5689Z" fill="black"/>
<path d="M46.762 56.688C46.762 54.859 46.768 53.0299 46.7585 51.2017C46.7559 50.7038 46.8795 50.2837 47.3411 50.0373C47.801 49.7918 48.222 49.9146 48.6351 50.1912C51.3615 52.0159 54.093 53.832 56.8219 55.6542C57.7252 56.2567 57.7244 57.1246 56.8202 57.7279C54.0921 59.5492 51.3606 61.3662 48.6334 63.191C48.2202 63.4676 47.7984 63.5877 47.3394 63.3422C46.8778 63.095 46.7559 62.6741 46.7585 62.1762C46.768 60.3471 46.762 58.518 46.762 56.6898V56.688ZM55.5443 56.6889C53.1231 55.0751 50.7616 53.501 48.3568 51.8975V61.4803C50.7642 59.8751 53.1171 58.3071 55.5443 56.6889Z" fill="black"/>
</svg>
